<svg width="1419" height="1226" viewBox="0 0 1419 1226" fill="none" xmlns="http://www.w3.org/2000/svg">
<path d="M187.299 428.043C247.936 428.043 297.092 378.887 297.092 318.25C297.092 257.613 247.936 208.457 187.299 208.457C126.661 208.457 77.5054 257.613 77.5054 318.25C77.5054 378.887 126.661 428.043 187.299 428.043Z" fill="white" stroke="#2E353A" stroke-linecap="round" stroke-linejoin="round"/>
<path d="M179.127 417.137C239.764 417.137 288.92 367.981 288.92 307.344C288.92 246.706 239.764 197.55 179.127 197.55C118.49 197.55 69.3336 246.706 69.3336 307.344C69.3336 367.981 118.49 417.137 179.127 417.137Z" fill="white" stroke="#2E353A" stroke-linecap="round" stroke-linejoin="round"/>
<path d="M179.127 406.231C233.741 406.231 278.014 361.957 278.014 307.344C278.014 252.73 233.741 208.457 179.127 208.457C124.513 208.457 80.2399 252.73 80.2399 307.344C80.2399 361.957 124.513 406.231 179.127 406.231Z" fill="#2E353A" stroke="#2E353A" stroke-linecap="round" stroke-linejoin="round"/>
<path d="M167.521 233.003C167.521 233.003 156.615 205.722 137.537 186.644C118.459 167.566 40.685 155.261 40.685 155.261C53.2438 167.374 64.6642 180.615 74.8026 194.816C92.5133 219.363 151.114 275.293 151.114 275.293C151.114 275.293 122.497 250.746 96.5514 248.011C70.6055 245.277 5.16836 258.917 1.16201 258.917C-2.84435 258.917 25.7089 269.824 46.1858 279.363C66.6627 288.902 145.741 297.105 145.741 297.105C145.741 297.105 111.655 306.644 88.5069 314.847C65.3591 323.051 43.4195 383.019 43.4195 383.019C43.4195 383.019 73.4354 355.738 99.3495 348.933C125.264 342.129 162.084 329.855 162.084 329.855C162.084 329.855 138.904 355.77 133.467 373.512C128.03 391.254 132.1 432.145 132.1 432.145C132.1 432.145 144.373 393.989 159.381 378.949C174.389 363.909 190.701 338.186 190.701 338.186C198.255 350.5 205.092 363.24 211.178 376.342C222.084 399.521 228.888 433.575 228.888 433.575C228.888 433.575 246.631 395.42 245.263 376.342C243.896 357.264 223.451 323.146 223.451 323.146C223.451 323.146 237.092 313.607 257.537 321.779C277.982 329.951 313.467 364.068 313.467 364.068C313.467 364.068 305.263 319.045 291.623 301.334C277.982 283.623 219.349 278.123 219.349 278.123C219.349 278.123 252.1 259.045 272.545 254.943C292.99 250.841 320.24 260.412 320.24 260.412C320.24 260.412 288.888 216.755 264.341 214.021C239.794 211.286 202.974 249.379 202.974 249.379L213.912 194.816C216.615 181.175 211.178 147.121 211.178 147.121C211.178 147.121 196.17 155.293 178.427 181.207C173.235 188.671 169.594 197.102 167.721 205.999C165.847 214.896 165.779 224.079 167.521 233.003Z" fill="#384B78"/>
<path opacity="0.5" d="M167.521 233.003C167.521 233.003 156.615 205.722 137.537 186.644C118.459 167.566 40.685 155.261 40.685 155.261C53.2438 167.374 64.6642 180.615 74.8026 194.816C92.5133 219.363 151.114 275.293 151.114 275.293C151.114 275.293 122.497 250.746 96.5514 248.011C70.6055 245.277 5.16836 258.917 1.16201 258.917C-2.84435 258.917 25.7089 269.824 46.1858 279.363C66.6627 288.902 145.741 297.105 145.741 297.105C145.741 297.105 111.655 306.644 88.5069 314.847C65.3591 323.051 43.4195 383.019 43.4195 383.019C43.4195 383.019 73.4354 355.738 99.3495 348.933C125.264 342.129 162.084 329.855 162.084 329.855C162.084 329.855 138.904 355.77 133.467 373.512C128.03 391.254 132.1 432.145 132.1 432.145C132.1 432.145 144.373 393.989 159.381 378.949C174.389 363.909 190.701 338.186 190.701 338.186C198.255 350.5 205.092 363.24 211.178 376.342C222.084 399.521 228.888 433.575 228.888 433.575C228.888 433.575 246.631 395.42 245.263 376.342C243.896 357.264 223.451 323.146 223.451 323.146C223.451 323.146 237.092 313.607 257.537 321.779C277.982 329.951 313.467 364.068 313.467 364.068C313.467 364.068 305.263 319.045 291.623 301.334C277.982 283.623 219.349 278.123 219.349 278.123C219.349 278.123 252.1 259.045 272.545 254.943C292.99 250.841 320.24 260.412 320.24 260.412C320.24 260.412 288.888 216.755 264.341 214.021C239.794 211.286 202.974 249.379 202.974 249.379L213.912 194.816C216.615 181.175 211.178 147.121 211.178 147.121C211.178 147.121 196.17 155.293 178.427 181.207C173.235 188.671 169.594 197.102 167.721 205.999C165.847 214.896 165.779 224.079 167.521 233.003Z" fill="black"/>
<path d="M194.389 191.477C195.343 187.566 196.392 183.655 197.569 179.808" stroke="#2E353A" stroke-width="0.5" stroke-linecap="round" stroke-linejoin="round"/>
<path d="M103.292 191.477C116.011 200.793 131.909 213.735 140.24 224.832C155.248 245.277 185.264 288.933 185.264 288.933C184.404 259.611 186.728 230.282 192.195 201.461" stroke="#2E353A" stroke-width="0.5" stroke-linecap="round" stroke-linejoin="round"/>
<path d="M84.3416 178.44C84.3416 178.44 88.3161 180.984 94.262 185.086" stroke="#2E353A" stroke-width="0.5" stroke-linecap="round" stroke-linejoin="round"/>
<path d="M185.264 288.933C185.264 288.933 237.092 237.105 258.904 233.003C280.717 228.901 299.826 245.277 299.826 245.277" stroke="#2E353A" stroke-width="0.5" stroke-linecap="round" stroke-linejoin="round"/>
<path d="M92.6404 332.272C79.9218 340.285 78.8726 344.991 78.8726 344.991" stroke="#2E353A" stroke-width="0.5" stroke-linecap="round" stroke-linejoin="round"/>
<path d="M298.459 336.66C298.459 336.66 290.287 316.183 261.639 306.644C232.99 297.105 188.03 295.738 188.03 295.738C188.03 295.738 124.914 316.405 101.83 327.184" stroke="#2E353A" stroke-width="0.5" stroke-linecap="round" stroke-linejoin="round"/>
<path d="M160.431 287.948C175.693 292.399 187.998 295.738 187.998 295.738" stroke="#2E353A" stroke-width="0.5" stroke-linecap="round" stroke-linejoin="round"/>
<path d="M64.3734 263.719C79.1906 264.609 98.2684 266.644 108.888 271.191C117.537 274.911 134.58 280.285 150.669 285.086" stroke="#2E353A" stroke-width="0.5" stroke-linecap="round" stroke-linejoin="round"/>
<path d="M43.4196 263.019C43.4196 263.019 48.4116 263.019 55.7566 263.305" stroke="#2E353A" stroke-width="0.5" stroke-linecap="round" stroke-linejoin="round"/>
<path d="M185.263 303.91C185.263 303.91 147.108 361.143 144.341 374.848C142.703 382.932 141.788 391.147 141.607 399.394" stroke="#2E353A" stroke-width="0.5" stroke-linecap="round" stroke-linejoin="round"/>
<path d="M202.243 321.938C209.588 331.477 218.395 344.196 222.084 354.37C226.377 366.784 229.569 379.552 231.623 392.526" stroke="#2E353A" stroke-width="0.5" stroke-linecap="round" stroke-linejoin="round"/>
<path d="M190.701 308.011C190.701 308.011 193.88 311.382 197.982 316.564" stroke="#2E353A" stroke-width="0.5" stroke-linecap="round" stroke-linejoin="round"/>
<path d="M150.192 244.768C150.192 244.768 143.165 216.151 147.521 189.601C151.877 163.051 207.934 107.63 207.934 107.63C204.819 124.793 203.276 142.205 203.324 159.649C203.324 189.919 188.221 269.538 188.221 269.538C188.221 269.538 197.155 232.908 216.615 215.484C236.074 198.059 297.219 170.968 300.526 168.647C303.833 166.326 286.949 191.827 275.915 211.541C264.882 231.255 205.327 284.132 205.327 284.132C205.327 284.132 238.586 271.986 262.179 265.054C285.772 258.123 338.491 294.18 338.491 294.18C338.491 294.18 298.205 289.538 273.181 299.108C248.157 308.679 211.082 320.189 211.082 320.189C211.082 320.189 245.041 327.725 259.794 338.949C274.548 350.173 295.152 385.881 295.152 385.881C295.152 385.881 262.911 362.002 241.957 358.568C221.003 355.134 192.609 343.655 192.609 343.655C193.685 358.059 195.575 372.39 198.268 386.58C202.942 411.795 217.346 443.464 217.346 443.464C217.346 443.464 180.685 422.796 170.637 406.485C160.59 390.173 157.346 350.555 157.346 350.555C157.346 350.555 140.685 350.746 128.729 369.315C116.774 387.884 107.966 436.278 107.966 436.278C107.966 436.278 88.3797 394.943 89.1111 372.685C89.8424 350.428 134.294 311.7 134.294 311.7C134.294 311.7 96.5832 315.293 77.5689 323.878C58.5547 332.463 41.9569 356.151 41.9569 356.151C41.9569 356.151 41.9569 302.415 60.3353 285.881C78.7136 269.347 130.892 278.886 130.892 278.886L90.1921 240.952C80.0173 231.414 64.5642 200.571 64.5642 200.571C64.5642 200.571 81.5435 198.472 111.051 209.188C119.627 212.191 127.512 216.888 134.237 223.001C140.961 229.113 146.387 236.516 150.192 244.768V244.768Z" fill="#384B78"/>
<path d="M104.151 226.708C100.971 224.069 97.9823 221.525 94.8026 219.045" stroke="#2E353A" stroke-width="0.5" stroke-linecap="round" stroke-linejoin="round"/>
<path d="M178.141 173.576C173.213 188.584 167.712 208.329 167.585 222.192C167.33 247.63 168.411 300.507 168.411 300.507C151.999 276.195 132.99 253.742 111.718 233.544" stroke="#2E353A" stroke-width="0.5" stroke-linecap="round" stroke-linejoin="round"/>
<path d="M185.963 151.922C185.963 151.922 184.182 156.31 181.766 163.083" stroke="#2E353A" stroke-width="0.5" stroke-linecap="round" stroke-linejoin="round"/>
<path d="M168.411 300.507C168.411 300.507 96.0745 288.647 75.9791 298.059C55.8837 307.471 49.906 331.827 49.906 331.827" stroke="#2E353A" stroke-width="0.5" stroke-linecap="round" stroke-linejoin="round"/>
<path d="M268.952 281.684C283.864 280.857 287.426 283.878 287.426 283.878" stroke="#2E353A" stroke-width="0.5" stroke-linecap="round" stroke-linejoin="round"/>
<path d="M104.31 405.308C104.31 405.308 99.0315 383.909 116.71 359.458C134.389 335.006 170.192 307.661 170.192 307.661C170.192 307.661 233.499 287.598 258.523 282.924" stroke="#2E353A" stroke-width="0.5" stroke-linecap="round" stroke-linejoin="round"/>
<path d="M188.03 285.245C178.237 297.741 170.224 307.662 170.224 307.662" stroke="#2E353A" stroke-width="0.5" stroke-linecap="round" stroke-linejoin="round"/>
<path d="M251.909 209.538C240.399 219.077 226.09 231.795 220.112 241.557C215.248 249.633 204.532 263.814 194.262 277.201" stroke="#2E353A" stroke-width="0.5" stroke-linecap="round" stroke-linejoin="round"/>
<path d="M268.507 196.724C268.507 196.724 264.469 199.649 258.65 204.164" stroke="#2E353A" stroke-width="0.5" stroke-linecap="round" stroke-linejoin="round"/>
<path d="M177.155 312.749C177.155 312.749 241.607 336.978 251.75 346.485C257.798 352.094 263.332 358.234 268.284 364.832" stroke="#2E353A" stroke-width="0.5" stroke-linecap="round" stroke-linejoin="round"/>
<path d="M173.88 337.232C173.435 349.251 173.658 364.673 176.678 375.166C180.427 387.772 185.29 400.019 191.209 411.763" stroke="#2E353A" stroke-width="0.5" stroke-linecap="round" stroke-linejoin="round"/>
<path d="M175.121 319.108C175.121 319.108 174.612 323.624 174.23 330.301" stroke="#2E353A" stroke-width="0.5" stroke-linecap="round" stroke-linejoin="round"/>
<path d="M362.37 390.428H1083.1C1092.1 390.428 1100.73 394.002 1107.09 400.365C1113.45 406.727 1117.03 415.357 1117.03 424.355V891.763C1117.03 896.636 1116.07 901.461 1114.2 905.963C1112.34 910.465 1109.6 914.555 1106.16 918.001C1102.71 921.447 1098.62 924.18 1094.12 926.045C1089.62 927.909 1084.79 928.869 1079.92 928.869H365.549C360.677 928.869 355.851 927.909 351.349 926.045C346.847 924.18 342.757 921.447 339.311 918.001C335.866 914.555 333.132 910.465 331.268 905.963C329.403 901.461 328.443 896.636 328.443 891.763V424.355C328.443 415.357 332.017 406.727 338.38 400.365C344.742 394.002 353.372 390.428 362.37 390.428Z" fill="white" stroke="#2E353A" stroke-linecap="round" stroke-linejoin="round"/>
<path d="M626.153 443.433H581.765V472.59H626.153V443.433Z" fill="#2E353A"/>
<path d="M482.338 623.305H441.13V664.195H482.338V623.305Z" fill="#2E353A"/>
<path d="M664.404 479.585H622.878V520.475H664.404V479.585Z" fill="#2E353A"/>
<path d="M574.738 443.433H530.351V472.59H574.738V443.433Z" fill="#2E353A"/>
<path d="M712.926 479.585H671.4V520.475H712.926V479.585Z" fill="#2E353A"/>
<path d="M677.536 443.433H633.149V472.59H677.536V443.433Z" fill="#2E353A"/>
<path d="M457.441 575.388H379.349V616.278H457.441V575.388Z" fill="#2E353A"/>
<path d="M567.33 479.585H525.804V520.475H567.33V479.585Z" fill="#2E353A"/>
<path d="M434.134 623.305H379.349V664.195H434.134V623.305Z" fill="#2E353A"/>
<path d="M728.951 443.433H684.563V472.59H728.951V443.433Z" fill="#2E353A"/>
<path d="M470.255 479.585H428.729V520.475H470.255V479.585Z" fill="#2E353A"/>
<path d="M471.94 443.433H427.553V472.59H471.94V443.433Z" fill="#2E353A"/>
<path d="M523.355 443.433H478.968V472.59H523.355V443.433Z" fill="#2E353A"/>
<path d="M518.777 479.585H477.25V520.475H518.777V479.585Z" fill="#2E353A"/>
<path d="M615.851 479.585H574.325V520.475H615.851V479.585Z" fill="#2E353A"/>
<path d="M934.579 443.433H890.191V472.59H934.579V443.433Z" fill="#2E353A"/>
<path d="M985.962 443.433H941.574V472.59H985.962V443.433Z" fill="#2E353A"/>
<path d="M955.628 479.585H914.102V520.475H955.628V479.585Z" fill="#2E353A"/>
<path d="M1004.18 479.585H962.655V520.475H1004.18V479.585Z" fill="#2E353A"/>
<path d="M1080.97 623.305H1019.83V664.195H1080.97V623.305Z" fill="#2E353A"/>
<path d="M1037.38 443.433H992.989V472.59H1037.38V443.433Z" fill="#2E353A"/>
<path d="M421.734 479.585H379.349V520.475H421.734V479.585Z" fill="#2E353A"/>
<path d="M780.366 443.433H735.978V472.59H780.366V443.433Z" fill="#2E353A"/>
<path d="M831.749 443.433H787.361V472.59H831.749V443.433Z" fill="#2E353A"/>
<path d="M810.032 479.585H768.506V520.475H810.032V479.585Z" fill="#2E353A"/>
<path d="M907.107 479.585H865.581V520.475H907.107V479.585Z" fill="#2E353A"/>
<path d="M761.479 479.585H719.953V520.475H761.479V479.585Z" fill="#2E353A"/>
<path d="M858.554 479.585H817.027V520.475H858.554V479.585Z" fill="#2E353A"/>
<path d="M883.164 443.433H838.776V472.59H883.164V443.433Z" fill="#2E353A"/>
<path d="M819.921 623.305H778.713V664.195H819.921V623.305Z" fill="#2E353A"/>
<path d="M1036.14 575.388H994.929V616.278H1036.14V575.388Z" fill="#2E353A"/>
<path d="M987.902 575.388H946.693V616.278H987.902V575.388Z" fill="#2E353A"/>
<path d="M1012.8 623.305H971.59V664.195H1012.8V623.305Z" fill="#2E353A"/>
<path d="M964.595 623.305H923.387V664.195H964.595V623.305Z" fill="#2E353A"/>
<path d="M868.124 623.305H826.916V664.195H868.124V623.305Z" fill="#2E353A"/>
<path d="M916.36 623.305H875.151V664.195H916.36V623.305Z" fill="#2E353A"/>
<path d="M939.667 575.388H898.458V616.278H939.667V575.388Z" fill="#2E353A"/>
<path d="M891.463 575.388H850.255V616.278H891.463V575.388Z" fill="#2E353A"/>
<path d="M1081 443.433H1044.4V472.59H1081V443.433Z" fill="#2E353A"/>
<path d="M420.557 443.433H379.349V472.59H420.557V443.433Z" fill="#2E353A"/>
<path d="M1081 671.191H379.349V713.703H1081V671.191Z" fill="#2E353A"/>
<path d="M1080.97 479.585H1011.18V520.475H1080.97V479.585Z" fill="#2E353A"/>
<path d="M1080.97 575.388H1043.13V616.278H1080.97V575.388Z" fill="#2E353A"/>
<path d="M1031.49 568.075H1024.47V527.502H983.259V568.075H976.264V527.502H935.056V568.075H928.029V527.502H886.821V568.075H879.794V527.502H838.585V568.075H831.59V527.502H790.382V568.075H783.355V527.502H742.147V568.075H735.12V527.502H693.912V568.075H686.916V527.502H645.708V568.075H638.681V527.502H597.473V568.075H590.446V527.502H549.238V568.075H542.242V527.502H501.034V568.075H494.007V527.502H452.799V568.075H445.772V527.502H379.349V568.393H1080.97V527.502H1031.49V568.075Z" fill="#2E353A"/>
<path d="M698.554 575.388H657.346V616.278H698.554V575.388Z" fill="#2E353A"/>
<path d="M843.228 575.388H802.02V616.278H843.228V575.388Z" fill="#2E353A"/>
<path d="M602.115 575.388H560.907V616.278H602.115V575.388Z" fill="#2E353A"/>
<path d="M627.012 623.305H585.804V664.195H627.012V623.305Z" fill="#2E353A"/>
<path d="M650.319 575.388H609.11V616.278H650.319V575.388Z" fill="#2E353A"/>
<path d="M553.88 575.388H512.672V616.278H553.88V575.388Z" fill="#2E353A"/>
<path d="M530.573 623.305H489.365V664.195H530.573V623.305Z" fill="#2E353A"/>
<path d="M578.777 623.305H537.568V664.195H578.777V623.305Z" fill="#2E353A"/>
<path d="M746.789 575.388H705.581V616.278H746.789V575.388Z" fill="#2E353A"/>
<path d="M771.686 623.305H730.478V664.195H771.686V623.305Z" fill="#2E353A"/>
<path d="M794.993 575.388H753.784V616.278H794.993V575.388Z" fill="#2E353A"/>
<path d="M675.247 623.305H634.039V664.195H675.247V623.305Z" fill="#2E353A"/>
<path d="M723.45 623.305H682.242V664.195H723.45V623.305Z" fill="#2E353A"/>
<path d="M505.645 575.388H464.436V616.278H505.645V575.388Z" fill="#2E353A"/>
<path d="M1162.05 97.9004H279.19C274.861 97.9038 270.59 98.9028 266.708 100.82C262.826 102.738 259.437 105.522 256.803 108.958C254.169 112.394 252.361 116.39 251.518 120.637C250.675 124.883 250.819 129.267 251.941 133.449L316.488 373.767C318.096 379.765 321.638 385.067 326.564 388.849C331.49 392.631 337.526 394.684 343.737 394.689H433.848V411.318H1011.56V394.784H1097.41C1103.62 394.779 1109.66 392.727 1114.58 388.944C1119.51 385.162 1123.05 379.861 1124.66 373.862L1189.21 133.544C1190.34 129.364 1190.5 124.978 1189.67 120.726C1188.84 116.475 1187.04 112.471 1184.42 109.025C1181.79 105.579 1178.41 102.783 1174.53 100.854C1170.65 98.9251 1166.38 97.9145 1162.05 97.9004V97.9004Z" fill="#2E353A" stroke="#2E353A" stroke-linecap="round" stroke-linejoin="round"/>
<path d="M1062.21 373.48H379.031L310.701 127.598H1130.51L1062.21 373.48Z" fill="#384B78" stroke="#2E353A" stroke-linecap="round" stroke-linejoin="round"/>
<path d="M424.373 265.563V268.743H412.322V265.563H424.373Z" fill="#2E353A"/>
<path d="M439.381 265.563V268.743H427.298V265.563H439.381Z" fill="#2E353A"/>
<path d="M454.389 265.563V268.743H442.401V265.563H454.389Z" fill="#2E353A"/>
<path d="M469.365 265.563V268.743H457.314V265.563H469.365Z" fill="#2E353A"/>
<path d="M484.373 265.563V268.743H472.29V265.563H484.373Z" fill="#2E353A"/>
<path d="M499.381 265.563V268.743H487.298V265.563H499.381Z" fill="#2E353A"/>
<path d="M514.357 265.563V268.743H502.306V265.563H514.357Z" fill="#2E353A"/>
<path d="M529.206 282.32L515.915 246.898H519.095L532.386 282.32H529.206Z" fill="#2E353A"/>
<path d="M412.227 213.989V217.169H400.176V213.989H412.227Z" fill="#2E353A"/>
<path d="M427.235 213.989V217.169H415.184V213.989H427.235Z" fill="#2E353A"/>
<path d="M442.402 213.989V217.169H430.319V213.989H442.402Z" fill="#2E353A"/>
<path d="M457.251 213.989V217.169H445.168V213.989H457.251Z" fill="#2E353A"/>
<path d="M472.227 213.989V217.169H460.176V213.989H472.227Z" fill="#2E353A"/>
<path d="M497.6 213.989V217.169H485.518V213.989H497.6Z" fill="#2E353A"/>
<path d="M512.576 213.989V217.169H500.526V213.989H512.576Z" fill="#2E353A"/>
<path d="M527.584 213.989V217.169H515.533V213.989H527.584Z" fill="#2E353A"/>
<path d="M542.592 213.989V217.169H530.51V213.989H542.592Z" fill="#2E353A"/>
<path d="M557.568 213.989V217.169H545.517V213.989H557.568Z" fill="#2E353A"/>
<path d="M572.576 213.989V217.169H560.525V213.989H572.576Z" fill="#2E353A"/>
<path d="M587.584 213.989V217.169H575.501V213.989H587.584Z" fill="#2E353A"/>
<path d="M612.926 213.989V217.169H600.875V213.989H612.926Z" fill="#2E353A"/>
<path d="M627.934 213.989V217.169H615.851V213.989H627.934Z" fill="#2E353A"/>
<path d="M642.942 213.989V217.169H630.859V213.989H642.942Z" fill="#2E353A"/>
<path d="M668.156 213.989V217.169H656.106V213.989H668.156Z" fill="#2E353A"/>
<path d="M683.292 213.989V217.169H671.336V213.989H683.292Z" fill="#2E353A"/>
<path d="M698.299 213.989V217.169H686.217V213.989H698.299Z" fill="#2E353A"/>
<path d="M754.706 213.989V217.169H742.656V213.989H754.706Z" fill="#2E353A"/>
<path d="M769.714 213.989V217.169H757.632V213.989H769.714Z" fill="#2E353A"/>
<path d="M784.722 213.989V217.169H772.64V213.989H784.722Z" fill="#2E353A"/>
<path d="M799.698 213.989V217.169H787.647V213.989H799.698Z" fill="#2E353A"/>
<path d="M814.706 213.989V217.169H802.624V213.989H814.706Z" fill="#2E353A"/>
<path d="M840.048 213.989V217.169H827.997V213.989H840.048Z" fill="#2E353A"/>
<path d="M855.056 213.989V217.169H843.037V213.989H855.056Z" fill="#2E353A"/>
<path d="M870.064 213.989V217.169H857.981V213.989H870.064Z" fill="#2E353A"/>
<path d="M895.406 213.989V217.169H883.355V213.989H895.406Z" fill="#2E353A"/>
<path d="M920.779 213.989V217.169H908.697V213.989H920.779Z" fill="#2E353A"/>
<path d="M1121.86 736.564L1087.84 867.82L1120.02 877.264L1121.86 736.564Z" fill="white" stroke="#2E353A" stroke-linecap="round" stroke-linejoin="round"/>
<path d="M1137.12 597.836C1133.28 591.937 1131.88 584.779 1133.21 577.868C1134.96 564.927 1150.57 561.97 1150.57 561.97C1150.57 561.97 1153.97 559.394 1166.47 564.132C1178.97 568.87 1275.6 581.97 1337.34 590.332C1399.09 598.695 1419.09 593.289 1418.23 614.498C1417.38 635.706 1363.2 826.039 1362.37 832.017C1361.54 837.995 1137.12 597.836 1137.12 597.836Z" fill="white" stroke="#2E353A" stroke-miterlimit="10"/>
<path d="M1396.85 633.054L1137.1 597.842L1095.12 907.474L1354.88 942.686L1396.85 633.054Z" fill="white" stroke="#2E353A" stroke-linecap="round" stroke-linejoin="round"/>
<path d="M1348.57 694.815L1363.67 696.882" stroke="#2E353A" stroke-width="0.5" stroke-linecap="round" stroke-linejoin="round"/>
<path d="M1253.97 682.001L1336.61 693.226" stroke="#2E353A" stroke-width="0.5" stroke-linecap="round" stroke-linejoin="round"/>
<path d="M1153.82 668.424L1242.02 680.38" stroke="#2E353A" stroke-width="0.5" stroke-linecap="round" stroke-linejoin="round"/>
<path d="M1324.91 719.648L1359.95 724.418" stroke="#2E353A" stroke-width="0.5" stroke-linecap="round" stroke-linejoin="round"/>
<path d="M1150.1 695.96L1289.08 714.784" stroke="#2E353A" stroke-width="0.5" stroke-linecap="round" stroke-linejoin="round"/>
<path d="M1220.62 733.543L1356.23 751.922" stroke="#2E353A" stroke-width="0.5" stroke-linecap="round" stroke-linejoin="round"/>
<path d="M1146.34 723.464L1206.66 731.667" stroke="#2E353A" stroke-width="0.5" stroke-linecap="round" stroke-linejoin="round"/>
<path d="M1265.68 767.693L1352.48 779.458" stroke="#2E353A" stroke-width="0.5" stroke-linecap="round" stroke-linejoin="round"/>
<path d="M1192 757.677L1255.72 766.326" stroke="#2E353A" stroke-width="0.5" stroke-linecap="round" stroke-linejoin="round"/>
<path d="M1142.62 751L1181.03 756.215" stroke="#2E353A" stroke-width="0.5" stroke-linecap="round" stroke-linejoin="round"/>
<path d="M1317.69 802.765L1348.76 806.962" stroke="#2E353A" stroke-width="0.5" stroke-linecap="round" stroke-linejoin="round"/>
<path d="M1138.9 778.536L1296.8 799.935" stroke="#2E353A" stroke-width="0.5" stroke-linecap="round" stroke-linejoin="round"/>
<path d="M1257.22 822.574L1345.04 834.497" stroke="#2E353A" stroke-width="0.5" stroke-linecap="round" stroke-linejoin="round"/>
<path d="M1135.15 806.04L1242.27 820.57" stroke="#2E353A" stroke-width="0.5" stroke-linecap="round" stroke-linejoin="round"/>
<path d="M1284.34 854.307L1341.29 862.001" stroke="#2E353A" stroke-width="0.5" stroke-linecap="round" stroke-linejoin="round"/>
<path d="M1168.86 838.631L1270.41 852.399" stroke="#2E353A" stroke-width="0.5" stroke-linecap="round" stroke-linejoin="round"/>
<path d="M1131.43 833.575L1156.9 837.009" stroke="#2E353A" stroke-width="0.5" stroke-linecap="round" stroke-linejoin="round"/>
<path d="M1396.87 633.067C1396.87 633.067 1401.32 589.887 1417.22 607.248" stroke="#2E353A" stroke-linecap="round" stroke-linejoin="round"/>
<path d="M1308.79 965.69L1308.51 993.13L1292.51 970.554L1228.31 754.625L1244.59 749.76L1308.79 965.69Z" fill="white" stroke="#2E353A" stroke-linecap="round" stroke-linejoin="round"/>
<path d="M1238.22 758.987L1229.34 761.578L1292.42 977.845L1301.3 975.254L1238.22 758.987Z" fill="#384B78" stroke="#2E353A" stroke-width="0.5" stroke-linecap="round" stroke-linejoin="round"/>
<path d="M1308.79 965.753L1292.54 970.586L1308.51 993.13L1308.79 965.753Z" stroke="#2E353A" stroke-linecap="round" stroke-linejoin="round"/>
<path d="M1300.52 981.842L1308.51 993.13L1308.66 979.426L1300.52 981.842Z" fill="#2E353A" stroke="#2E353A" stroke-linecap="round" stroke-linejoin="round"/>
<path d="M1229.27 728.011C1227.11 728.659 1225.3 730.132 1224.23 732.11C1223.16 734.087 1222.91 736.409 1223.55 738.567L1228.31 754.624L1244.59 749.791L1239.83 733.734C1239.18 731.58 1237.7 729.769 1235.73 728.697C1233.75 727.625 1231.43 727.378 1229.27 728.011V728.011Z" fill="white" stroke="#2E353A" stroke-linecap="round" stroke-linejoin="round"/>
<path d="M1229.27 728.011C1227.11 728.659 1225.3 730.132 1224.23 732.11C1223.16 734.087 1222.91 736.409 1223.55 738.567L1225.83 746.23L1242.08 741.397L1239.83 733.734C1239.18 731.58 1237.7 729.769 1235.73 728.697C1233.75 727.625 1231.43 727.378 1229.27 728.011V728.011Z" fill="#2E353A" stroke="#2E353A" stroke-linecap="round" stroke-linejoin="round"/>
<path d="M428.57 600.475C426.535 603.337 424.532 606.326 422.529 609.474" stroke="white" stroke-linecap="round" stroke-linejoin="round"/>
<path d="M461.829 562.192C452.97 570.405 444.772 579.303 437.314 588.806" stroke="white" stroke-linecap="round" stroke-linejoin="round"/>
<path d="M425.74 579.076C417.053 591.261 409.182 604.007 402.179 617.232" stroke="white" stroke-linecap="round" stroke-linejoin="round"/>
<path d="M650.001 648.997C647.997 651.858 645.962 654.847 643.959 657.963" stroke="white" stroke-linecap="round" stroke-linejoin="round"/>
<path d="M683.26 610.713C674.416 618.932 666.23 627.83 658.776 637.327" stroke="white" stroke-linecap="round" stroke-linejoin="round"/>
<path d="M647.203 627.534C638.52 639.788 630.65 652.598 623.641 665.88" stroke="white" stroke-linecap="round" stroke-linejoin="round"/>
<path d="M967.393 570.3C964.499 568.329 961.447 566.358 958.299 564.386" stroke="white" stroke-linecap="round" stroke-linejoin="round"/>
<path d="M1006.18 602.987C997.822 594.277 988.797 586.23 979.189 578.917" stroke="white" stroke-linecap="round" stroke-linejoin="round"/>
<path d="M988.76 567.121C976.387 558.624 963.471 550.944 950.096 544.132" stroke="white" stroke-linecap="round" stroke-linejoin="round"/>
<path d="M640.334 767.438C638.681 779.394 636.201 796.055 633.721 805.944" stroke="#2E353A" stroke-linecap="round" stroke-linejoin="round"/>
<path d="M642.179 752.907C642.179 752.907 641.924 755.165 641.447 758.821" stroke="#2E353A" stroke-linecap="round" stroke-linejoin="round"/>
<path d="M650.668 786.834C647.197 798.417 642.947 809.751 637.95 820.761" stroke="#2E353A" stroke-linecap="round" stroke-linejoin="round"/>
<path d="M809.651 803.782C809.651 803.782 811.781 831.349 826.598 846.198" stroke="#2E353A" stroke-linecap="round" stroke-linejoin="round"/>
<path d="M807.52 831.349C807.52 831.349 813.88 850.427 826.598 858.917" stroke="#2E353A" stroke-linecap="round" stroke-linejoin="round"/>
<g style="mix-blend-mode:multiply">
<path d="M375.629 978.694C375.629 978.694 389.747 967.343 389.747 869.759C389.747 772.176 405.995 700.888 426.026 669.632C446.058 638.377 464.786 625.849 473.562 625.849C482.338 625.849 476.042 637.105 463.546 653.353C451.05 669.601 439.794 678.377 434.77 698.408C429.747 718.44 429.778 743.432 436.042 740.92C442.306 738.408 452.29 688.392 461.034 669.632C469.778 650.873 491.082 627.089 503.578 615.833C516.074 604.577 543.61 570.809 556.106 579.553C568.602 588.297 561.129 600.825 553.625 605.817C546.122 610.809 516.074 640.793 502.338 659.617C488.602 678.44 479.826 725.912 487.33 727.152C494.834 728.392 517.346 658.377 529.842 643.369C542.338 628.361 592.385 587.057 603.641 585.817C614.897 584.577 616.169 602.065 606.153 610.841C596.137 619.617 562.37 657.105 551.114 679.617C539.858 702.128 534.834 743.432 544.754 733.416C554.675 723.4 571.018 682.128 584.786 668.361C598.554 654.593 639.826 610.841 649.842 615.833C659.858 620.825 657.346 633.353 648.602 642.097C639.858 650.841 606.058 698.408 597.314 723.4C588.57 748.392 578.522 818.472 583.546 808.488C588.57 798.504 604.818 747.184 613.562 725.817C622.306 704.45 639.826 694.561 642.338 704.545C644.85 714.529 639.826 719.553 633.562 742.097C627.298 764.64 627.203 824.767 608.57 858.408C589.937 892.049 515.152 964.036 505.168 989.028C497.936 1006.24 489.3 1022.83 479.349 1038.63" fill="#384B78"/>
</g>
<g style="mix-blend-mode:multiply">
<path d="M1070.54 987.152C1070.54 987.152 1056.07 967.343 1056.07 869.759C1056.07 772.176 1039.79 700.888 1019.79 669.632C999.793 638.377 981.002 625.849 972.258 625.849C963.514 625.849 969.746 637.105 982.274 653.353C994.801 669.601 1006.03 678.377 1010.89 698.408C1015.76 718.44 1015.91 743.432 1009.65 740.92C1003.39 738.408 993.402 688.392 984.627 669.632C975.851 650.873 954.611 627.089 942.115 615.833C929.619 604.577 902.083 570.809 889.555 579.553C877.027 588.297 884.563 600.825 892.067 605.817C899.571 610.809 929.587 640.793 943.355 659.617C957.123 678.44 965.867 725.912 958.363 727.152C950.859 728.392 928.442 658.377 915.946 643.432C903.45 628.488 853.371 587.121 842.115 585.881C830.859 584.641 829.619 602.129 839.635 610.904C849.651 619.68 883.418 657.168 894.674 679.68C905.93 702.192 910.922 743.496 901.034 733.48C891.145 723.464 874.77 682.192 861.034 668.424C847.298 654.656 805.994 610.904 795.978 615.896C785.962 620.888 788.474 633.416 797.218 642.16C805.962 650.904 839.762 698.472 848.506 723.464C857.25 748.456 867.266 818.535 862.274 808.551C857.282 798.567 841.002 747.248 832.258 725.88C823.514 704.513 805.994 694.624 803.482 704.609C800.97 714.593 805.994 719.616 812.226 742.16C818.458 764.704 818.585 824.831 837.25 858.472C855.914 892.112 928.569 957.772 938.585 982.796C948.601 1007.82 966.725 1047.25 966.725 1047.25" fill="#384B78"/>
</g>
<path d="M370.859 1002.73C370.859 1002.73 389.619 941.46 389.619 843.75C389.619 746.039 405.867 674.879 425.899 643.623C445.931 612.367 464.659 599.839 473.435 599.839C482.211 599.839 475.915 611.095 463.419 627.343C450.923 643.591 439.667 652.367 434.643 672.367C429.619 692.367 429.651 717.422 435.915 714.91C442.179 712.399 452.163 662.383 460.907 643.623C469.651 624.863 490.955 601.079 503.451 589.823C515.947 578.567 543.482 544.799 555.978 553.543C568.474 562.287 561.002 574.815 553.498 579.807C545.994 584.799 515.947 614.783 502.211 633.607C488.474 652.43 479.699 699.902 487.203 701.143C494.707 702.383 517.219 632.367 529.715 617.327C542.211 602.287 592.258 561.047 603.514 559.807C614.77 558.567 616.042 576.055 606.026 584.831C596.01 593.607 562.242 631.095 550.986 653.607C539.73 676.119 534.707 717.422 544.627 707.406C554.548 697.391 570.891 656.119 584.659 642.351C598.427 628.583 639.698 584.831 649.714 589.823C659.73 594.815 657.218 607.343 648.474 616.087C639.73 624.831 605.931 672.367 597.187 697.391C588.443 722.414 578.395 792.462 583.419 782.446C588.443 772.43 604.691 721.174 613.435 699.775C622.179 678.376 639.698 668.488 642.21 678.503C644.722 688.519 639.698 693.511 633.435 716.023C627.171 738.535 627.075 798.694 608.443 832.367C589.81 866.039 517.123 957.454 507.107 982.478C497.091 1007.5 474.579 1062.54 474.579 1062.54" fill="white"/>
<path d="M370.859 1002.73C370.859 1002.73 389.619 941.46 389.619 843.75C389.619 746.039 405.867 674.879 425.899 643.623C445.931 612.367 464.659 599.839 473.435 599.839C482.211 599.839 475.915 611.095 463.419 627.343C450.923 643.591 439.667 652.367 434.643 672.367C429.619 692.367 429.651 717.422 435.915 714.91C442.179 712.399 452.163 662.383 460.907 643.623C469.651 624.863 490.955 601.079 503.451 589.823C515.947 578.567 543.482 544.799 555.978 553.543C568.474 562.287 561.002 574.815 553.498 579.807C545.994 584.799 515.947 614.783 502.211 633.607C488.474 652.43 479.699 699.902 487.203 701.143C494.707 702.383 517.219 632.367 529.715 617.327C542.211 602.287 592.258 561.047 603.514 559.807C614.77 558.567 616.042 576.055 606.026 584.831C596.01 593.607 562.242 631.095 550.986 653.607C539.73 676.119 534.707 717.422 544.627 707.406C554.548 697.391 570.891 656.119 584.659 642.351C598.427 628.583 639.698 584.831 649.714 589.823C659.73 594.815 657.218 607.343 648.474 616.087C639.73 624.831 605.931 672.367 597.187 697.391C588.443 722.414 578.395 792.462 583.419 782.446C588.443 772.43 604.691 721.174 613.435 699.775C622.179 678.376 639.698 668.488 642.21 678.503C644.722 688.519 639.698 693.511 633.435 716.023C627.171 738.535 627.075 798.694 608.443 832.367C589.81 866.039 517.123 957.454 507.107 982.478C497.091 1007.5 474.579 1062.54 474.579 1062.54" stroke="#2E353A" stroke-linecap="round" stroke-linejoin="round"/>
<path d="M1074.8 1002.73C1074.8 1002.73 1056.04 941.46 1056.04 843.75C1056.04 746.039 1039.76 674.879 1019.76 643.623C999.762 612.367 980.97 599.839 972.226 599.839C963.482 599.839 969.714 611.095 982.242 627.343C994.77 643.591 1005.99 652.367 1010.86 672.367C1015.72 692.367 1015.88 717.422 1009.62 714.91C1003.35 712.399 993.371 662.383 984.595 643.623C975.819 624.863 954.579 601.079 942.083 589.823C929.587 578.567 902.051 544.799 889.523 553.543C876.996 562.287 884.531 574.815 892.035 579.807C899.539 584.799 929.555 614.783 943.323 633.607C957.091 652.43 965.835 699.902 958.331 701.143C950.827 702.383 928.315 632.367 915.819 617.327C903.323 602.287 853.244 561.047 841.988 559.807C830.732 558.567 829.492 576.055 839.508 584.831C849.523 593.607 883.291 631.095 894.547 653.607C905.803 676.119 910.795 717.422 900.907 707.406C891.018 697.391 874.643 656.119 860.907 642.351C847.17 628.583 805.867 584.831 795.851 589.823C785.835 594.815 788.347 607.343 797.091 616.087C805.835 624.831 839.635 672.367 848.379 697.391C857.123 722.414 867.139 792.462 862.147 782.446C857.155 772.43 840.875 721.174 832.131 699.775C823.387 678.376 805.867 668.488 803.355 678.503C800.843 688.519 805.867 693.511 812.099 716.023C818.331 738.535 818.458 798.694 837.123 832.367C855.787 866.039 928.442 957.454 938.458 982.478C948.474 1007.5 970.986 1062.54 970.986 1062.54" fill="white"/>
<path d="M1074.8 1002.73C1074.8 1002.73 1056.04 941.46 1056.04 843.75C1056.04 746.039 1039.76 674.879 1019.76 643.623C999.762 612.367 980.97 599.839 972.226 599.839C963.482 599.839 969.714 611.095 982.242 627.343C994.77 643.591 1005.99 652.367 1010.86 672.367C1015.72 692.367 1015.88 717.422 1009.62 714.91C1003.35 712.399 993.371 662.383 984.595 643.623C975.819 624.863 954.579 601.079 942.083 589.823C929.587 578.567 902.051 544.799 889.523 553.543C876.996 562.287 884.531 574.815 892.035 579.807C899.539 584.799 929.555 614.783 943.323 633.607C957.091 652.43 965.835 699.902 958.331 701.143C950.827 702.383 928.315 632.367 915.819 617.327C903.323 602.287 853.244 561.047 841.988 559.807C830.732 558.567 829.492 576.055 839.508 584.831C849.523 593.607 883.291 631.095 894.547 653.607C905.803 676.119 910.795 717.422 900.907 707.406C891.018 697.391 874.643 656.119 860.907 642.351C847.17 628.583 805.867 584.831 795.851 589.823C785.835 594.815 788.347 607.343 797.091 616.087C805.835 624.831 839.635 672.367 848.379 697.391C857.123 722.414 867.139 792.462 862.147 782.446C857.155 772.43 840.875 721.174 832.131 699.775C823.387 678.376 805.867 668.488 803.355 678.503C800.843 688.519 805.867 693.511 812.099 716.023C818.331 738.535 818.458 798.694 837.123 832.367C855.787 866.039 928.442 957.454 938.458 982.478C948.474 1007.5 970.986 1062.54 970.986 1062.54" stroke="#2E353A" stroke-linecap="round" stroke-linejoin="round"/>
<path d="M291.686 1193.51H482.465C484.945 1183.97 488.061 1173.29 492.004 1161.71C507.012 1116.75 555.597 1060.54 555.597 1060.54C520.775 1029.87 479.858 1006.92 435.533 993.193C362.402 970.681 308.856 977.295 308.856 977.295C318.713 1017.94 319.797 1060.21 312.036 1101.3C302.497 1147.6 296.138 1176.88 291.686 1193.51Z" fill="#2E353A" stroke="#2E353A" stroke-linecap="round" stroke-linejoin="round"/>
<path d="M961.956 1193.51H1160.17C1153.82 1177.04 1140.08 1141.27 1126.34 1105.5C1107.58 1056.79 1115.09 991.222 1107.58 991.222C1100.08 991.222 1015.79 985.594 974.579 998.694C933.371 1011.79 886.503 1049.28 886.503 1049.28C907.719 1073.93 925.958 1101 940.843 1129.92C950.411 1150.19 957.499 1171.54 961.956 1193.51V1193.51Z" fill="#2E353A" stroke="#2E353A" stroke-linecap="round" stroke-linejoin="round"/>
<path d="M410.859 1016.09C409.492 1010.68 389.142 1018.82 389.142 1018.82C389.142 1018.82 395.947 993.066 385.104 993.066C374.262 993.066 372.894 1012.14 372.894 1012.14C372.894 1012.14 352.545 1004.04 352.545 1016.21C352.545 1028.39 366.09 1028.17 366.09 1028.17C366.09 1028.17 349.81 1048.52 362.02 1052.56C374.23 1056.6 382.338 1041.71 382.338 1041.71C382.338 1041.71 390.478 1055.29 401.416 1049.85C412.354 1044.42 404.119 1032.24 404.119 1032.24C404.119 1032.24 412.195 1021.52 410.859 1016.09ZM383.737 1036.44C382.714 1036.21 381.775 1035.7 381.03 1034.96C380.285 1034.22 379.764 1033.29 379.526 1032.27C379.288 1031.25 379.344 1030.18 379.686 1029.19C380.029 1028.2 380.644 1027.32 381.462 1026.67C382.279 1026.01 383.266 1025.6 384.307 1025.48C385.349 1025.36 386.403 1025.53 387.349 1025.99C388.295 1026.44 389.093 1027.15 389.652 1028.04C390.211 1028.92 390.509 1029.95 390.51 1031C390.28 1032.6 389.453 1034.04 388.196 1035.05C386.939 1036.06 385.345 1036.56 383.737 1036.44V1036.44ZM440.684 1168.07C439.317 1162.67 418.967 1170.81 418.967 1170.81C418.967 1170.81 425.772 1145.05 414.898 1145.05C404.023 1145.05 402.719 1164.13 402.719 1164.13C402.719 1164.13 382.37 1155.99 382.37 1168.17C382.37 1180.35 395.947 1180.38 395.947 1180.38C395.947 1180.38 379.667 1200.73 391.877 1204.8C404.087 1208.87 412.195 1193.92 412.195 1193.92C412.195 1193.92 420.335 1207.5 431.273 1202.06C442.211 1196.63 433.975 1184.45 433.975 1184.45C433.975 1184.45 442.02 1173.35 440.684 1168.07ZM413.562 1188.42C412.539 1188.2 411.6 1187.68 410.855 1186.95C410.11 1186.21 409.589 1185.27 409.351 1184.25C409.113 1183.23 409.169 1182.17 409.511 1181.17C409.854 1180.18 410.469 1179.31 411.287 1178.65C412.104 1178 413.091 1177.58 414.132 1177.46C415.174 1177.34 416.228 1177.52 417.174 1177.97C418.12 1178.43 418.918 1179.14 419.477 1180.02C420.036 1180.91 420.334 1181.94 420.335 1182.99C420.105 1184.57 419.272 1186 418.01 1186.99C416.748 1187.97 415.154 1188.43 413.562 1188.26V1188.42ZM321.352 1188.42C319.985 1182.99 299.667 1191.13 299.667 1191.13C299.667 1191.13 306.44 1165.37 295.597 1165.37C284.755 1165.37 283.387 1184.45 283.387 1184.45C283.387 1184.45 263.038 1176.31 263.038 1188.52C263.038 1200.73 276.615 1200.73 276.615 1200.73C276.615 1200.73 260.335 1221.05 272.545 1225.12C284.755 1229.19 292.863 1214.27 292.863 1214.27C292.863 1214.27 301.003 1227.82 311.941 1222.41C322.879 1217.01 314.675 1204.8 314.675 1204.8C314.675 1204.8 322.72 1193.67 321.384 1188.26L321.352 1188.42ZM294.23 1208.74C293.205 1208.51 292.266 1208 291.52 1207.26C290.775 1206.52 290.254 1205.59 290.017 1204.56C289.78 1203.54 289.838 1202.47 290.183 1201.48C290.528 1200.49 291.147 1199.62 291.967 1198.96C292.788 1198.31 293.777 1197.9 294.82 1197.78C295.863 1197.66 296.918 1197.84 297.863 1198.3C298.808 1198.76 299.604 1199.47 300.16 1200.37C300.715 1201.26 301.008 1202.29 301.003 1203.34C300.766 1204.91 299.934 1206.33 298.68 1207.31C297.425 1208.28 295.844 1208.74 294.262 1208.58L294.23 1208.74ZM469.11 1082.67H484.023C494.866 1082.67 501.638 1094.88 501.638 1094.88C478.618 1101.49 469.142 1082.51 469.142 1082.51L469.11 1082.67ZM454.198 1188.42H469.11C479.953 1188.42 486.726 1200.63 486.726 1200.63C463.705 1207.25 454.23 1188.26 454.23 1188.26L454.198 1188.42ZM324.087 1168.07H338.999C349.842 1168.07 356.615 1180.28 356.615 1180.28C333.562 1186.9 324.087 1168.07 324.087 1168.07ZM396.169 1072.4L404.882 1084.51C411.241 1093.35 405.231 1105.94 405.231 1105.94C386.281 1091.03 396.169 1072.24 396.169 1072.24V1072.4ZM321.575 1112.91L328.379 1099.65C333.371 1090.11 347.298 1089.54 347.298 1089.54C342.624 1113.13 321.575 1112.91 321.575 1112.91Z" fill="white"/>
<path d="M1049.36 1041.84C1048 1036.44 1027.65 1044.58 1027.65 1044.58C1027.65 1044.58 1034.45 1018.82 1023.61 1018.82C1012.77 1018.82 1011.4 1037.9 1011.4 1037.9C1011.4 1037.9 991.049 1029.79 991.049 1041.97C991.049 1054.15 1004.63 1054.18 1004.63 1054.18C1004.63 1054.18 988.347 1074.53 1000.56 1078.6C1012.77 1082.67 1020.87 1067.72 1020.87 1067.72C1020.87 1067.72 1029.01 1081.3 1039.95 1075.86C1050.89 1070.43 1042.66 1058.25 1042.66 1058.25C1042.66 1058.25 1050.7 1047.25 1049.36 1041.84ZM1022.24 1062.19C1021.22 1061.96 1020.28 1061.45 1019.53 1060.71C1018.79 1059.98 1018.27 1059.04 1018.03 1058.02C1017.79 1057 1017.85 1055.93 1018.19 1054.94C1018.53 1053.95 1019.15 1053.08 1019.97 1052.42C1020.78 1051.76 1021.77 1051.35 1022.81 1051.23C1023.85 1051.11 1024.91 1051.29 1025.85 1051.74C1026.8 1052.19 1027.6 1052.91 1028.16 1053.79C1028.72 1054.68 1029.01 1055.71 1029.01 1056.75C1028.82 1058.37 1028.01 1059.84 1026.74 1060.86C1025.47 1061.87 1023.86 1062.35 1022.24 1062.19V1062.19ZM1113.05 1147.6C1111.72 1142.16 1091.37 1150.3 1091.37 1150.3C1091.37 1150.3 1098.14 1124.54 1087.3 1124.54C1076.45 1124.54 1075.12 1143.62 1075.12 1143.62C1075.12 1143.62 1054.77 1135.48 1054.77 1147.69C1054.77 1159.9 1068.31 1159.9 1068.31 1159.9C1068.31 1159.9 1052.07 1180.22 1064.28 1184.29C1076.49 1188.36 1084.59 1173.45 1084.59 1173.45C1084.59 1173.45 1092.73 1186.99 1103.67 1181.59C1114.61 1176.18 1106.38 1163.97 1106.38 1163.97C1106.38 1163.97 1114.42 1153 1113.05 1147.6ZM1085.96 1168.07C1084.94 1167.85 1084 1167.33 1083.25 1166.59C1082.51 1165.85 1081.99 1164.92 1081.75 1163.9C1081.51 1162.87 1081.57 1161.8 1081.92 1160.81C1082.26 1159.82 1082.88 1158.95 1083.7 1158.29C1084.52 1157.64 1085.51 1157.23 1086.55 1157.11C1087.6 1157 1088.65 1157.18 1089.6 1157.63C1090.54 1158.09 1091.34 1158.81 1091.89 1159.7C1092.45 1160.59 1092.74 1161.62 1092.73 1162.67C1092.54 1164.28 1091.71 1165.74 1090.45 1166.75C1089.18 1167.76 1087.57 1168.24 1085.96 1168.07ZM1045.29 1188.42C1043.93 1182.99 1023.61 1191.13 1023.61 1191.13C1023.61 1191.13 1030.38 1165.37 1019.54 1165.37C1008.7 1165.37 1007.33 1184.45 1007.33 1184.45C1007.33 1184.45 986.979 1176.31 986.979 1188.52C986.979 1200.73 1000.56 1200.73 1000.56 1200.73C1000.56 1200.73 984.277 1221.05 996.487 1225.12C1008.7 1229.19 1016.8 1214.27 1016.8 1214.27C1016.8 1214.27 1024.94 1227.82 1035.88 1222.41C1046.82 1217.01 1038.62 1204.8 1038.62 1204.8C1038.62 1204.8 1046.53 1193.67 1045.29 1188.26V1188.42ZM1018.17 1208.74C1017.15 1208.51 1016.21 1208 1015.46 1207.26C1014.72 1206.52 1014.2 1205.59 1013.96 1204.56C1013.72 1203.54 1013.78 1202.47 1014.12 1201.48C1014.47 1200.49 1015.09 1199.62 1015.91 1198.96C1016.73 1198.31 1017.72 1197.9 1018.76 1197.78C1019.81 1197.66 1020.86 1197.84 1021.81 1198.3C1022.75 1198.76 1023.55 1199.47 1024.1 1200.37C1024.66 1201.26 1024.95 1202.29 1024.94 1203.34C1024.71 1204.91 1023.87 1206.34 1022.61 1207.32C1021.35 1208.29 1019.76 1208.75 1018.17 1208.58V1208.74ZM1107.65 1108.42H1122.56C1133.4 1108.42 1140.17 1120.63 1140.17 1120.63C1117.12 1127.25 1107.65 1108.26 1107.65 1108.26V1108.42ZM947.679 1185.56H962.592C973.434 1185.56 980.207 1197.74 980.207 1197.74C957.154 1204.54 947.679 1185.56 947.679 1185.56ZM1034.67 1098.12L1043.39 1110.24C1049.75 1119.08 1043.74 1131.67 1043.74 1131.67C1024.79 1116.79 1034.67 1098.12 1034.67 1098.12ZM1122.85 1173.92L1131.53 1186.04C1137.89 1194.85 1131.88 1207.47 1131.88 1207.47C1112.93 1192.68 1122.85 1173.92 1122.85 1173.92ZM959.952 1138.66L966.757 1125.4C971.749 1115.86 985.835 1115.29 985.835 1115.29C981.129 1138.88 959.921 1138.66 959.921 1138.66H959.952Z" fill="white"/>
</svg>
