<svg width="3487" height="3210" viewBox="0 0 3487 3210" fill="none"
  xmlns="http://www.w3.org/2000/svg">
  <path d="M356.376 2689.67C-161.728 2280.04 -72.955 1540.04 361.171 960.957C1026.85 72.9283 2078.72 -260.888 2868.09 292.201C3557.29 775.32 3568.83 2069.23 3388.59 2463.58C3216.29 2839.8 2781.79 3180.13 1884.62 3208.3C1092.33 3233.09 634.981 2909.91 356.376 2689.67Z" fill="#22252C"/>
  <path d="M2445.35 297.595C2445.35 299.906 2444.66 302.166 2443.38 304.088C2442.09 306.009 2440.27 307.507 2438.13 308.392C2436 309.276 2433.65 309.508 2431.38 309.057C2429.11 308.606 2427.03 307.493 2425.4 305.858C2423.76 304.224 2422.65 302.142 2422.2 299.875C2421.75 297.608 2421.98 295.258 2422.86 293.123C2423.75 290.987 2425.25 289.162 2427.17 287.878C2429.09 286.594 2431.35 285.908 2433.66 285.908C2436.76 285.908 2439.73 287.139 2441.93 289.331C2444.12 291.523 2445.35 294.495 2445.35 297.595V297.595Z" fill="white"/>
  <path opacity="0.3" d="M898.003 715.389C904.457 715.389 909.689 710.157 909.689 703.703C909.689 697.248 904.457 692.016 898.003 692.016C891.549 692.016 886.316 697.248 886.316 703.703C886.316 710.157 891.549 715.389 898.003 715.389Z" fill="white"/>
  <path d="M1448.77 334.677C1448.77 336.989 1448.08 339.248 1446.8 341.17C1445.52 343.092 1443.69 344.59 1441.56 345.474C1439.42 346.359 1437.07 346.59 1434.8 346.139C1432.54 345.688 1430.45 344.575 1428.82 342.941C1427.19 341.307 1426.07 339.224 1425.62 336.957C1425.17 334.69 1425.4 332.34 1426.29 330.205C1427.17 328.07 1428.67 326.244 1430.59 324.96C1432.51 323.676 1434.77 322.991 1437.08 322.991C1440.18 322.991 1443.15 324.222 1445.35 326.414C1447.54 328.605 1448.77 331.578 1448.77 334.677Z" fill="white"/>
  <g opacity="0.3">
    <path opacity="0.3" d="M2762.91 491.247C2764.07 491.7 2765.06 492.486 2765.77 493.506C2766.49 494.525 2766.88 495.733 2766.91 496.976C2766.93 498.219 2766.59 499.441 2765.92 500.49C2765.25 501.538 2764.29 502.365 2763.15 502.866C2762.01 503.367 2760.75 503.52 2759.53 503.305C2758.3 503.09 2757.17 502.518 2756.27 501.659C2755.37 500.801 2754.74 499.696 2754.47 498.483C2754.2 497.269 2754.29 496.003 2754.74 494.843C2755.04 494.069 2755.49 493.362 2756.06 492.762C2756.63 492.163 2757.32 491.682 2758.08 491.348C2758.84 491.014 2759.65 490.833 2760.48 490.815C2761.31 490.798 2762.14 490.945 2762.91 491.247V491.247Z" fill="white"/>
    <path opacity="0.3" d="M2803.14 529.378C2805.46 530.251 2807.48 531.792 2808.93 533.808C2810.38 535.823 2811.2 538.222 2811.29 540.704C2811.38 543.185 2810.73 545.638 2809.43 547.753C2808.13 549.868 2806.23 551.551 2803.98 552.59C2801.72 553.63 2799.21 553.979 2796.76 553.593C2794.31 553.208 2792.02 552.106 2790.19 550.425C2788.37 548.744 2787.08 546.561 2786.49 544.149C2785.9 541.736 2786.03 539.204 2786.88 536.87C2787.45 535.304 2788.32 533.868 2789.45 532.642C2790.57 531.417 2791.93 530.427 2793.44 529.73C2794.96 529.033 2796.59 528.643 2798.26 528.583C2799.92 528.523 2801.58 528.793 2803.14 529.378V529.378Z" fill="white"/>
    <g opacity="0.5">
      <path opacity="0.5" d="M3000.16 864.018C2999.82 866.307 2998.81 868.443 2997.26 870.158C2995.71 871.873 2993.68 873.088 2991.44 873.65C2989.19 874.212 2986.83 874.095 2984.66 873.315C2982.48 872.534 2980.58 871.125 2979.2 869.266C2977.83 867.406 2977.04 865.18 2976.93 862.87C2976.82 860.559 2977.39 858.268 2978.59 856.286C2979.78 854.304 2981.53 852.721 2983.63 851.737C2985.72 850.753 2988.06 850.412 2990.35 850.758C2993.39 851.239 2996.13 852.899 2997.97 855.379C2999.8 857.86 3000.59 860.962 3000.16 864.018V864.018Z" fill="white"/>
    </g>
  </g>
  <g opacity="0.5">
    <path opacity="0.5" d="M1355.2 641.749C1355.22 644.374 1354.45 646.945 1353 649.136C1351.56 651.326 1349.49 653.037 1347.07 654.052C1344.65 655.068 1341.98 655.341 1339.4 654.838C1336.82 654.335 1334.45 653.078 1332.59 651.226C1330.73 649.375 1329.46 647.012 1328.94 644.438C1328.43 641.864 1328.68 639.194 1329.68 636.767C1330.69 634.34 1332.39 632.264 1334.57 630.804C1336.75 629.344 1339.32 628.564 1341.94 628.564C1345.45 628.564 1348.81 629.951 1351.29 632.421C1353.78 634.892 1355.18 638.245 1355.2 641.749V641.749Z" fill="white"/>
    <path opacity="0.5" d="M1315.72 677.857C1315.81 679.447 1315.42 681.027 1314.6 682.393C1313.78 683.758 1312.57 684.845 1311.13 685.514C1309.68 686.182 1308.07 686.401 1306.5 686.141C1304.93 685.881 1303.47 685.155 1302.32 684.057C1301.16 682.958 1300.37 681.539 1300.03 679.983C1299.7 678.426 1299.84 676.805 1300.43 675.328C1301.03 673.852 1302.06 672.59 1303.38 671.705C1304.7 670.82 1306.26 670.353 1307.86 670.366C1308.87 670.315 1309.89 670.471 1310.84 670.825C1311.79 671.178 1312.66 671.722 1313.4 672.423C1314.13 673.124 1314.72 673.967 1315.12 674.901C1315.52 675.835 1315.72 676.841 1315.72 677.857V677.857Z" fill="white"/>
    <path opacity="0.5" d="M1293.32 628.564C1293.32 629.823 1292.95 631.054 1292.25 632.102C1291.55 633.149 1290.56 633.965 1289.39 634.447C1288.23 634.929 1286.95 635.055 1285.71 634.809C1284.48 634.564 1283.34 633.957 1282.45 633.067C1281.56 632.176 1280.96 631.041 1280.71 629.806C1280.46 628.571 1280.59 627.291 1281.07 626.127C1281.55 624.964 1282.37 623.969 1283.42 623.269C1284.47 622.57 1285.7 622.196 1286.96 622.196C1288.64 622.196 1290.26 622.867 1291.46 624.061C1292.65 625.255 1293.32 626.875 1293.32 628.564Z" fill="white"/>
  </g>
  <g opacity="0.5">
    <path opacity="0.5" d="M2568.13 723.48C2567.81 725.774 2566.81 727.92 2565.26 729.646C2563.72 731.372 2561.69 732.599 2559.45 733.172C2557.21 733.745 2554.84 733.638 2552.66 732.864C2550.47 732.09 2548.57 730.685 2547.18 728.826C2545.8 726.968 2545 724.74 2544.89 722.426C2544.77 720.112 2545.35 717.816 2546.54 715.83C2547.73 713.844 2549.49 712.258 2551.59 711.272C2553.69 710.287 2556.03 709.947 2558.32 710.295C2559.83 710.506 2561.29 711.015 2562.61 711.795C2563.92 712.574 2565.07 713.607 2565.98 714.834C2566.9 716.061 2567.56 717.457 2567.93 718.941C2568.3 720.426 2568.36 721.968 2568.13 723.48Z" fill="white"/>
  </g>
  <path d="M380.648 13.6712C380.648 31.5007 408.516 31.5007 408.216 13.6712C407.916 -4.15827 380.423 -4.23318 380.648 13.6712Z" fill="#E6E6E6"/>
  <path d="M172.163 195.263L199.207 204.627C208.945 242.608 206.698 242.084 229.771 210.47C269.401 212.718 267.678 215.414 244.754 183.201C259.063 146.194 261.085 148.666 223.404 160.727C192.614 135.631 195.611 134.433 195.236 173.912C193.888 176.609 161.75 190.168 172.163 195.263Z" fill="#E6E6E6"/>
  <path d="M785.107 291.751V292.725C781.511 329.426 767.248 364.271 744.08 392.961C720.911 421.65 689.851 442.93 654.73 454.173C619.609 465.416 581.965 466.131 546.442 456.23C510.92 446.328 479.073 426.244 454.832 398.455C430.591 370.666 415.015 336.388 410.028 299.85C405.04 263.312 410.858 226.114 426.765 192.844C442.671 159.575 467.969 131.69 499.538 112.63C531.108 93.5704 567.566 84.1699 604.415 85.5886C580.972 93.2412 559.794 106.59 542.778 124.438C525.762 142.287 513.439 164.078 506.913 187.859C500.388 211.64 499.863 236.668 505.388 260.702C510.912 284.735 522.311 307.023 538.565 325.568C554.819 344.114 575.42 358.337 598.522 366.965C621.624 375.592 646.505 378.354 670.936 375.003C695.368 371.652 718.586 362.292 738.512 347.763C758.437 333.234 774.447 313.988 785.107 291.751V291.751Z" fill="#384B78"/>
  <path d="M1080.49 113.756H1037.42C1037.65 112.194 1037.78 110.617 1037.79 109.037V98.1741C1037.79 88.9551 1034.13 80.1138 1027.61 73.595C1021.09 67.0763 1012.25 63.4141 1003.03 63.4141C995.549 63.3924 988.264 65.8121 982.281 70.3062C980.557 57.2402 973.941 45.3144 963.77 36.9342C953.598 28.5541 940.626 24.3433 927.472 25.1512C914.317 25.9591 901.959 31.7256 892.889 41.2874C883.819 50.8493 878.713 63.4951 878.6 76.6738V92.8552C878.589 100.055 880.095 107.177 883.02 113.756H847.286C844.652 113.592 842.012 113.969 839.529 114.864C837.046 115.759 834.772 117.153 832.849 118.961C830.925 120.768 829.392 122.95 828.344 125.373C827.297 127.796 826.756 130.407 826.756 133.046C826.756 135.686 827.297 138.297 828.344 140.72C829.392 143.142 830.925 145.325 832.849 147.132C834.772 148.939 837.046 150.334 839.529 151.229C842.012 152.124 844.652 152.501 847.286 152.337H1080.49C1085.4 152.031 1090.01 149.865 1093.38 146.281C1096.74 142.697 1098.62 137.964 1098.62 133.046C1098.62 128.129 1096.74 123.396 1093.38 119.812C1090.01 116.228 1085.4 114.062 1080.49 113.756Z" fill="#E0E0E0"/>
  <path d="M164.072 599.722L187.82 595.752V550.803C187.82 514.845 220.857 489.749 256.815 489.749C274.061 489.749 290.6 496.599 302.795 508.794C314.99 520.989 321.84 537.528 321.84 554.774V561.291C330.227 554.218 340.835 550.319 351.806 550.279V550.279C357.951 550.269 364.038 551.471 369.718 553.816C375.398 556.161 380.56 559.602 384.909 563.944C389.258 568.286 392.708 573.442 395.062 579.119C397.416 584.795 398.627 590.88 398.627 597.025V600.022H431.739C439.652 600.412 447.112 603.83 452.574 609.568C458.037 615.307 461.083 622.926 461.083 630.849C461.083 638.771 458.037 646.391 452.574 652.129C447.112 657.867 439.652 661.286 431.739 661.676H164.072C156.159 661.286 148.699 657.867 143.237 652.129C137.774 646.391 134.728 638.771 134.728 630.849C134.728 622.926 137.774 615.307 143.237 609.568C148.699 603.83 156.159 600.412 164.072 600.022V599.722Z" fill="#E0E0E0"/>
  <path d="M1981.33 3063.04L3152.31 2387.54C3168.42 2378.33 3168.42 2363.27 3152.31 2353.98L1493.57 1396.13C1484.56 1391.55 1474.6 1389.17 1464.5 1389.17C1454.4 1389.17 1444.44 1391.55 1435.44 1396.13L264.457 2071.93C248.426 2081.14 248.426 2096.2 264.457 2105.42L1923.5 3063.04C1932.47 3067.57 1942.37 3069.93 1952.42 3069.93C1962.46 3069.93 1972.37 3067.57 1981.33 3063.04V3063.04Z" fill="#263238"/>
  <path d="M2216.79 1466.92L2165.25 1437.18L2216.79 1422.28V1466.92Z" fill="#384B78"/>
  <path opacity="0.6" d="M2216.79 1466.92L2165.25 1437.18L2216.79 1422.28V1466.92Z" fill="black"/>
  <path d="M1958.48 1571.43V1618.85L1661.23 1446.85V1399.43L1958.48 1571.43Z" fill="#384B78"/>
  <path opacity="0.6" d="M1958.48 1571.43V1618.85L1661.23 1446.85V1399.43L1958.48 1571.43Z" fill="black"/>
  <path d="M1635.46 1027.26L1932.71 1199.26V1586.34L1635.46 1414.26V1027.26Z" fill="#384B78"/>
  <path opacity="0.55" d="M1635.46 1027.26L1932.71 1199.26V1586.34L1635.46 1414.26V1027.26Z" fill="black"/>
  <path d="M1932.71 1199.26L2268.33 1005.53V1392.54L1932.71 1586.34V1199.26Z" fill="#384B78"/>
  <path opacity="0.45" d="M1932.71 1199.26L2268.33 1005.53V1392.54L1932.71 1586.34V1199.26Z" fill="black"/>
  <path d="M2268.33 1005.53L1971.07 833.453L1635.46 1027.26L1932.71 1199.26L2268.33 1005.53Z" fill="#384B78"/>
  <path opacity="0.3" d="M2268.33 1005.53L1971.07 833.453L1635.46 1027.26L1932.71 1199.26L2268.33 1005.53Z" fill="black"/>
  <path d="M1958.48 1214.17L2242.56 1050.18V1139.48L1958.48 1303.46V1214.17Z" fill="#384B78"/>
  <path opacity="0.2" d="M1958.48 1214.17L2242.56 1050.18V1139.48L1958.48 1303.46V1214.17Z" fill="black"/>
  <path opacity="0.2" d="M1958.48 1333.28L2242.56 1169.22V1377.63L1958.48 1541.69V1333.28Z" fill="black"/>
  <path d="M1958.48 1618.85L1984.33 1604.02V1556.52L1958.48 1571.43V1618.85Z" fill="#384B78"/>
  <path opacity="0.55" d="M1958.48 1618.85L1984.33 1604.02V1556.52L1958.48 1571.43V1618.85Z" fill="black"/>
  <path d="M2216.79 1466.92L2242.56 1452.09V1407.37L2216.79 1422.28V1466.92Z" fill="#384B78"/>
  <path opacity="0.55" d="M2216.79 1466.92L2242.56 1452.09V1407.37L2216.79 1422.28V1466.92Z" fill="black"/>
  <path d="M2046.58 1182.18C2046.58 1186.22 2058.87 1182.18 2074.08 1173.71L2122.17 1145.92C2137.15 1137.15 2149.66 1126.74 2149.66 1122.62V1115.13L2046.58 1174.61V1182.18Z" fill="#37474F"/>
  <path opacity="0.2" d="M2242.56 1377.63L2063.36 1272.75L1958.48 1333.28V1541.69L2242.56 1377.63Z" fill="black"/>
  <path opacity="0.1" d="M2184.85 627.515C2213.68 505.384 2138.04 383.009 2015.91 354.184C1893.78 325.358 1771.4 400.997 1742.58 523.128C1713.75 645.259 1789.39 767.634 1911.52 796.459C2033.65 825.285 2156.03 749.646 2184.85 627.515Z" fill="#384B78"/>
  <path opacity="0.1" d="M2256.82 644.499C2295.02 482.624 2194.77 320.427 2032.89 282.221C1871.02 244.015 1708.82 344.268 1670.62 506.143C1632.41 668.018 1732.66 830.216 1894.54 868.422C2056.41 906.628 2218.61 806.374 2256.82 644.499Z" fill="#384B78"/>
  <path opacity="0.1" d="M2328.85 661.501C2376.45 459.842 2251.56 257.781 2049.9 210.185C1848.24 162.589 1646.18 287.482 1598.58 489.141C1550.98 690.8 1675.88 892.861 1877.54 940.457C2079.2 988.053 2281.26 863.16 2328.85 661.501Z" fill="#384B78"/>
  <path d="M2037.89 955.712C2037.95 953.722 2037.75 951.732 2037.29 949.794C2032.5 928.02 2019.66 908.861 2001.33 896.156H1926.42C1908.14 908.903 1895.31 928.043 1890.46 949.794C1890.06 951.74 1889.88 953.726 1889.94 955.712C1889.94 955.712 1889.94 956.686 1889.94 956.686C1890.61 967.099 1897.43 977.362 1911.51 985.303C1927.76 993.543 1945.73 997.837 1963.95 997.837C1982.17 997.837 2000.14 993.543 2016.39 985.303C2030.1 977.362 2037.22 967.099 2037.97 956.686C2037.82 956.686 2037.89 955.712 2037.89 955.712Z" fill="#263238"/>
  <path d="M1928.14 894.957C1908.44 906.344 1908.44 924.923 1928.14 936.16C1939.19 941.737 1951.39 944.643 1963.76 944.643C1976.14 944.643 1988.34 941.737 1999.39 936.16C2019.09 924.773 2019.09 906.194 1999.39 894.957C1988.34 889.38 1976.14 886.475 1963.76 886.475C1951.39 886.475 1939.19 889.38 1928.14 894.957V894.957Z" fill="#37474F"/>
  <path d="M1973.84 644.221H1953.31V907.693C1953.26 908.675 1953.51 909.65 1954.03 910.483C1954.55 911.316 1955.33 911.964 1956.24 912.337C1958.47 913.481 1960.95 914.078 1963.46 914.078C1965.98 914.078 1968.46 913.481 1970.69 912.337C1972.94 911.064 1973.92 909.341 1973.62 907.693L1973.84 644.221Z" fill="#263238"/>
  <path d="M2109.96 635.381L2041.26 459.783H1886.34L1817.5 635.381C1807.76 662.874 1821.17 692.54 1858.1 713.816C1916.46 747.527 2011 747.527 2069.28 713.816C2106.29 692.54 2119.77 662.874 2109.96 635.381Z" fill="#384B78"/>
  <path opacity="0.4" d="M2109.96 635.381L2041.26 459.783H1886.34L1817.5 635.381C1807.76 662.874 1821.17 692.54 1858.1 713.816C1916.46 747.527 2011 747.527 2069.28 713.816C2106.29 692.54 2119.77 662.874 2109.96 635.381Z" fill="white"/>
  <path d="M1963.8 515.219C2007.53 515.219 2042.99 494.76 2042.99 469.522C2042.99 444.284 2007.53 423.824 1963.8 423.824C1920.07 423.824 1884.62 444.284 1884.62 469.522C1884.62 494.76 1920.07 515.219 1963.8 515.219Z" fill="#384B78"/>
  <path opacity="0.7" d="M1963.8 515.219C2007.53 515.219 2042.99 494.76 2042.99 469.522C2042.99 444.284 2007.53 423.824 1963.8 423.824C1920.07 423.824 1884.62 444.284 1884.62 469.522C1884.62 494.76 1920.07 515.219 1963.8 515.219Z" fill="white"/>
  <path d="M1963.8 503.982C1946.91 504.386 1930.19 500.439 1915.26 492.52C1903.95 486.003 1897.73 477.537 1897.73 469.522C1897.73 461.506 1903.95 453.041 1915.26 446.523C1930.3 438.936 1946.92 434.984 1963.76 434.984C1980.61 434.984 1997.23 438.936 2012.27 446.523C2023.66 453.041 2029.88 461.506 2029.88 469.522C2029.88 477.537 2023.66 486.003 2012.27 492.52C1997.36 500.433 1980.67 504.379 1963.8 503.982V503.982Z" fill="#384B78"/>
  <path d="M457.36 2128.56L419.903 2106.84C414.206 2103.13 409.462 2098.13 406.053 2092.25C402.643 2086.37 400.664 2079.76 400.275 2072.98V1487.6C400.659 1480.8 402.635 1474.19 406.044 1468.29C409.454 1462.4 414.201 1457.39 419.903 1453.66L1510.65 823.864C1516.71 820.797 1523.41 819.198 1530.2 819.198C1536.99 819.198 1543.69 820.797 1549.75 823.864L1587.58 845.514C1593.3 849.219 1598.06 854.226 1601.47 860.125C1604.89 866.023 1606.85 872.646 1607.21 879.45V1465.13C1606.85 1471.93 1604.89 1478.55 1601.47 1484.45C1598.06 1490.35 1593.3 1495.36 1587.58 1499.06L496.54 2128.56C490.465 2131.63 483.755 2133.23 476.95 2133.23C470.144 2133.23 463.434 2131.63 457.36 2128.56V2128.56Z" fill="#384B78"/>
  <path opacity="0.3" d="M457.36 2128.56L419.903 2106.84C414.206 2103.13 409.462 2098.13 406.053 2092.25C402.643 2086.37 400.664 2079.76 400.275 2072.98V1487.6C400.659 1480.8 402.635 1474.19 406.044 1468.29C409.454 1462.4 414.201 1457.39 419.903 1453.66L1510.65 823.864C1516.71 820.797 1523.41 819.198 1530.2 819.198C1536.99 819.198 1543.69 820.797 1549.75 823.864L1587.58 845.514C1593.3 849.219 1598.06 854.226 1601.47 860.125C1604.89 866.023 1606.85 872.646 1607.21 879.45V1465.13C1606.85 1471.93 1604.89 1478.55 1601.47 1484.45C1598.06 1490.35 1593.3 1495.36 1587.58 1499.06L496.54 2128.56C490.465 2131.63 483.755 2133.23 476.95 2133.23C470.144 2133.23 463.434 2131.63 457.36 2128.56V2128.56Z" fill="black"/>
  <path d="M1607.21 879.45V1465.13C1606.85 1471.93 1604.89 1478.55 1601.47 1484.45C1598.06 1490.35 1593.3 1495.36 1587.58 1499.06L496.54 2128.56C485.677 2134.78 476.912 2129.69 476.912 2117.25V1531.8C477.284 1525 479.255 1518.38 482.665 1512.48C486.076 1506.59 490.829 1501.58 496.54 1497.86L1587.58 868.138C1598.45 861.92 1607.21 866.939 1607.21 879.45Z" fill="#384B78"/>
  <path opacity="0.45" d="M1607.21 879.45V1465.13C1606.85 1471.93 1604.89 1478.55 1601.47 1484.45C1598.06 1490.35 1593.3 1495.36 1587.58 1499.06L496.54 2128.56C485.677 2134.78 476.912 2129.69 476.912 2117.25V1531.8C477.284 1525 479.255 1518.38 482.665 1512.48C486.076 1506.59 490.829 1501.58 496.54 1497.86L1587.58 868.138C1598.45 861.92 1607.21 866.939 1607.21 879.45Z" fill="black"/>
  <path d="M491.97 2130.59C486.368 2132.64 480.402 2133.51 474.446 2133.15C468.49 2132.79 462.673 2131.2 457.36 2128.49L419.903 2106.84C414.217 2103.12 409.484 2098.12 406.087 2092.24C402.69 2086.36 400.725 2079.76 400.351 2072.98V1487.6C400.578 1480.8 402.537 1474.18 406.044 1468.35L483.055 1512.55C479.549 1518.37 477.589 1525 477.362 1531.8V2117.25C476.987 2127.89 483.43 2133.13 491.97 2130.59Z" fill="#384B78"/>
  <path opacity="0.55" d="M491.97 2130.59C486.368 2132.64 480.402 2133.51 474.446 2133.15C468.49 2132.79 462.673 2131.2 457.36 2128.49L419.903 2106.84C414.217 2103.12 409.484 2098.12 406.087 2092.24C402.69 2086.36 400.725 2079.76 400.351 2072.98V1487.6C400.578 1480.8 402.537 1474.18 406.044 1468.35L483.055 1512.55C479.549 1518.37 477.589 1525 477.362 1531.8V2117.25C476.987 2127.89 483.43 2133.13 491.97 2130.59Z" fill="black"/>
  <path d="M2046.88 2749.3L1956.24 2696.86C1953.21 2695.31 1949.86 2694.5 1946.46 2694.5C1943.06 2694.5 1939.71 2695.31 1936.68 2696.86L1846.04 2749.3C1843.11 2751.16 1840.72 2753.74 1839.07 2756.79V2756.79C1839.07 2757.39 1838.55 2758.06 1838.25 2758.66C1837.07 2761 1836.39 2763.55 1836.22 2766.15V2913.21C1836.42 2916.44 1837.34 2919.57 1838.91 2922.4C1840.48 2925.23 1842.66 2927.67 1845.29 2929.54C1845.29 2929.54 1845.74 2929.99 1846.04 2930.14L1936.68 2982.58C1937.04 2982.78 1937.42 2982.93 1937.81 2983.03C1938.9 2983.6 1940.06 2984.05 1941.25 2984.38C1942.95 2984.77 1944.68 2984.97 1946.42 2984.98C1949.85 2985.04 1953.23 2984.21 1956.24 2982.58L2046.88 2930.14C2049.73 2928.28 2052.1 2925.78 2053.8 2922.84C2055.51 2919.9 2056.5 2916.6 2056.69 2913.21V2766.23C2056.5 2762.84 2055.51 2759.54 2053.8 2756.6C2052.1 2753.66 2049.73 2751.16 2046.88 2749.3V2749.3Z" fill="#455A64"/>
  <path d="M1956.24 2982.58L2046.88 2930.14C2049.73 2928.28 2052.1 2925.78 2053.8 2922.84C2055.51 2919.9 2056.5 2916.6 2056.7 2913.21V2766.23C2056.7 2760.01 2052.28 2757.46 2046.88 2760.61L1956.24 2813.05C1953.39 2814.92 1951.02 2817.43 1949.33 2820.39C1947.64 2823.34 1946.67 2826.66 1946.5 2830.06V2977.11C1946.42 2983.18 1950.84 2985.88 1956.24 2982.58Z" fill="#37474F"/>
  <path d="M3030.13 2181.75L2939.48 2129.31C2936.45 2127.76 2933.1 2126.95 2929.7 2126.95C2926.3 2126.95 2922.95 2127.76 2919.93 2129.31L2829.28 2181.75C2826.35 2183.6 2823.95 2186.18 2822.31 2189.24C2822.31 2189.77 2821.79 2190.44 2821.49 2191.04C2820.32 2193.38 2819.63 2195.93 2819.47 2198.53V2345.66C2819.67 2348.89 2820.59 2352.03 2822.16 2354.85C2823.72 2357.68 2825.9 2360.12 2828.53 2361.99C2828.77 2362.21 2829.02 2362.41 2829.28 2362.59L2919.85 2415.03C2920.21 2415.23 2920.58 2415.38 2920.98 2415.48C2922.07 2416.05 2923.23 2416.51 2924.42 2416.83C2926.12 2417.22 2927.85 2417.42 2929.59 2417.43C2933.01 2417.48 2936.39 2416.66 2939.4 2415.03L3030.05 2362.59C3032.89 2360.73 3035.25 2358.23 3036.94 2355.29C3038.63 2352.35 3039.61 2349.05 3039.79 2345.66V2198.68C3039.61 2195.3 3038.65 2192.01 3036.97 2189.07C3035.29 2186.13 3032.95 2183.62 3030.13 2181.75V2181.75Z" fill="#455A64"/>
  <path d="M2939.55 2415.03L3030.2 2362.59C3033.04 2360.73 3035.4 2358.23 3037.09 2355.29C3038.78 2352.35 3039.76 2349.05 3039.94 2345.66V2198.68C3039.94 2192.46 3035.59 2189.92 3030.2 2193.06L2939.55 2245.5C2936.7 2247.37 2934.32 2249.88 2932.62 2252.83C2930.91 2255.79 2929.93 2259.1 2929.74 2262.51V2409.57C2929.74 2415.63 2934.16 2418.18 2939.55 2415.03Z" fill="#37474F"/>
  <path d="M1568.03 1297.62L516.092 1904.8C504.687 1912.22 495.194 1922.22 488.386 1934C481.578 1945.78 477.647 1959.01 476.912 1972.59V2010.05C477.641 2023.65 481.569 2036.88 488.377 2048.68C495.185 2060.47 504.681 2070.49 516.092 2077.92L1907.32 2881C1919.44 2887.17 1932.85 2890.39 1946.46 2890.39C1960.06 2890.39 1973.48 2887.17 1985.6 2881L3037.54 2274.2C3048.95 2266.76 3058.45 2256.74 3065.26 2244.95C3072.06 2233.16 3075.99 2219.92 3076.72 2206.32V2168.87C3075.99 2155.28 3072.06 2142.06 3065.25 2130.28C3058.44 2118.5 3048.95 2108.49 3037.54 2101.07L1646.32 1297.62C1634.19 1291.45 1620.78 1288.23 1607.17 1288.23C1593.57 1288.23 1580.16 1291.45 1568.03 1297.62V1297.62Z" fill="#455A64"/>
  <path d="M3076.72 2168.72V2206.17C3075.98 2219.76 3072.05 2232.98 3065.24 2244.76C3058.43 2256.54 3048.94 2266.55 3037.54 2273.97L1985.6 2881C1973.57 2887.36 1960.11 2890.56 1946.5 2890.29V2762.93C1960.12 2763.22 1973.59 2759.99 1985.6 2753.57L3037.62 2146.09C3057.77 2134.33 3059.12 2116.13 3041.59 2103.39C3051.87 2111.05 3060.34 2120.86 3066.41 2132.15C3072.48 2143.44 3076 2155.92 3076.72 2168.72V2168.72Z" fill="#263238"/>
  <path d="M516.167 1950.04C495.566 1938.13 494.517 1919.33 513.096 1906.82C502.547 1914.4 493.824 1924.23 487.563 1935.61C481.303 1946.99 477.664 1959.63 476.912 1972.59V2010.05C477.641 2023.65 481.569 2036.88 488.377 2048.68C495.185 2060.47 504.681 2070.49 516.092 2077.92L1907.32 2881C1919.35 2887.44 1932.85 2890.66 1946.5 2890.36V2763.01C1932.85 2763.3 1919.36 2760.08 1907.32 2753.64L516.167 1950.04Z" fill="#37474F"/>
  <path d="M1568.03 1085.84L516.092 1693.01C504.691 1700.44 495.201 1710.45 488.394 1722.23C481.586 1734.01 477.653 1747.23 476.912 1760.81V1840.07C477.641 1853.67 481.569 1866.9 488.377 1878.7C495.185 1890.49 504.681 1900.51 516.092 1907.94L1907.32 2711.09C1919.44 2717.26 1932.85 2720.48 1946.46 2720.48C1960.06 2720.48 1973.48 2717.26 1985.6 2711.09L3037.54 2104.29C3048.95 2096.86 3058.45 2086.84 3065.26 2075.05C3072.06 2063.25 3075.99 2050.02 3076.72 2036.42V1956.86C3075.98 1943.28 3072.05 1930.06 3065.24 1918.28C3058.43 1906.5 3048.94 1896.49 3037.54 1889.06L1646.32 1085.84C1634.18 1079.71 1620.77 1076.51 1607.17 1076.51C1593.58 1076.51 1580.17 1079.71 1568.03 1085.84V1085.84Z" fill="#384B78"/>
  <path opacity="0.8" d="M516.092 1738.26L1907.32 2541.41C1919.44 2547.58 1932.85 2550.8 1946.46 2550.8C1960.06 2550.8 1973.48 2547.58 1985.6 2541.41L3037.54 1934.61C3059.19 1922.1 3059.19 1901.87 3037.54 1889.66L1646.32 1085.84C1634.18 1079.71 1620.77 1076.51 1607.17 1076.51C1593.58 1076.51 1580.17 1079.71 1568.03 1085.84L516.092 1693.01C494.442 1705.53 494.442 1725.75 516.092 1738.26Z" fill="white"/>
  <path opacity="0.5" d="M3076.72 1956.94V2036.19C3075.92 2049.72 3071.96 2062.86 3065.16 2074.57C3058.35 2086.28 3048.89 2096.23 3037.54 2103.62L1985.6 2711.17C1973.57 2717.53 1960.11 2720.73 1946.5 2720.46V2550.78C1960.11 2551.05 1973.57 2547.85 1985.6 2541.49L3037.62 1934.31C3057.77 1922.55 3059.12 1904.35 3041.59 1891.61C3051.86 1899.27 3060.33 1909.09 3066.4 1920.38C3072.47 1931.66 3075.99 1944.14 3076.72 1956.94Z" fill="white"/>
  <path opacity="0.6" d="M516.167 1738.26C495.566 1726.43 494.517 1707.55 513.096 1695.04C502.554 1702.62 493.837 1712.46 487.578 1723.84C481.318 1735.22 477.675 1747.85 476.912 1760.81V1840.07C477.641 1853.67 481.569 1866.9 488.377 1878.7C495.185 1890.49 504.681 1900.51 516.092 1907.94L1907.32 2711.09C1919.35 2717.53 1932.85 2720.76 1946.5 2720.46V2550.78C1932.86 2551.06 1919.38 2547.86 1907.32 2541.49L516.167 1738.26Z" fill="white"/>
  <path d="M700.306 1844.71V2141.67L1946.27 2860.85V2550.78C1932.6 2551.04 1919.1 2547.82 1907.02 2541.41L700.306 1844.71Z" fill="#384B78"/>
  <path opacity="0.3" d="M700.306 1844.71V2141.67L1946.27 2860.85V2550.78C1932.6 2551.04 1919.1 2547.82 1907.02 2541.41L700.306 1844.71Z" fill="black"/>
  <path d="M3037.62 1934.31C3057.77 1922.55 3059.12 1904.35 3041.59 1891.61C3051.87 1899.26 3060.36 1909.08 3066.44 1920.37C3072.52 1931.65 3076.06 1944.14 3076.8 1956.94V2208.65L1946.5 2861V2550.78C1960.11 2551.03 1973.56 2547.84 1985.6 2541.49L3037.62 1934.31Z" fill="#384B78"/>
  <path opacity="0.45" d="M3037.62 1934.31C3057.77 1922.55 3059.12 1904.35 3041.59 1891.61C3051.87 1899.26 3060.36 1909.08 3066.44 1920.37C3072.52 1931.65 3076.06 1944.14 3076.8 1956.94V2208.65L1946.5 2861V2550.78C1960.11 2551.03 1973.56 2547.84 1985.6 2541.49L3037.62 1934.31Z" fill="black"/>
  <path d="M3037.62 1889.06L1830.91 1192.37L700.306 1844.72L1907.09 2541.41C1919.22 2547.58 1932.63 2550.8 1946.23 2550.8C1959.84 2550.8 1973.25 2547.58 1985.38 2541.41L3037.32 1934.61C3059.19 1922.1 3059.19 1901.57 3037.62 1889.06Z" fill="#384B78"/>
  <path opacity="0.2" d="M3037.62 1889.06L1830.91 1192.37L700.306 1844.72L1907.09 2541.41C1919.22 2547.58 1932.63 2550.8 1946.23 2550.8C1959.84 2550.8 1973.25 2547.58 1985.38 2541.41L3037.32 1934.61C3059.19 1922.1 3059.19 1901.57 3037.62 1889.06Z" fill="black"/>
  <path opacity="0.2" d="M847.511 1929.59V2227.08L865.94 2237.11L865.865 1940.16L847.511 1929.59Z" fill="black"/>
  <path opacity="0.1" d="M847.511 1929.59L1977.89 1277.09L1996.99 1288.33L865.865 1940.16L847.511 1929.59Z" fill="black"/>
  <path d="M1830.23 1264.81C1842.97 1218.29 1824.24 1194.01 1798.54 1150.79C1772.85 1107.56 1713.29 1024.03 1688.87 988.225C1664.45 952.416 1637.25 917.282 1622.57 912.337C1607.89 907.393 1598.15 901.55 1559.42 915.484C1520.69 929.418 1440.38 977.213 1340.89 1032.05C1241.41 1086.89 1108.66 1164.8 1102.67 1218.44C1098.92 1251.7 1274.07 1543.94 1316.62 1548.06C1411.39 1557.79 1511.4 1487.15 1563.84 1455.31C1651.79 1402.27 1714.71 1363.09 1775.69 1321.82C1803.41 1303.31 1824.39 1286.38 1830.23 1264.81Z" fill="#F0F0F0"/>
  <path d="M1148.74 1335.68C1171.96 1373.13 1239.46 1475.31 1262.91 1505.51C1286.36 1535.7 1327.11 1570.01 1336.62 1531.28C1346.14 1492.54 1309.8 1443.7 1285.23 1405.35C1260.66 1366.99 1191.74 1276.42 1169.49 1246.83C1147.24 1217.24 1110.01 1188.39 1101.24 1223C1092.48 1257.62 1125.59 1298.07 1148.74 1335.68Z" fill="#E0E0E0"/>
  <path d="M1299.62 1574.58C1312.35 1528.05 1293.55 1503.78 1267.85 1460.56C1242.16 1417.33 1182.68 1333.8 1158.25 1297.99C1133.83 1262.18 1106.64 1227.05 1091.95 1222.11C1077.27 1217.16 1067.46 1211.32 1028.8 1225.25C990.147 1239.19 909.689 1286.98 810.279 1341.82C710.868 1396.66 578.046 1474.49 572.053 1528.2C568.232 1561.39 743.456 1853.7 786.007 1857.82C880.698 1867.56 980.783 1796.92 1033.22 1765.08C1121.25 1712.04 1184.17 1672.86 1245.08 1631.51C1272.65 1613.08 1293.62 1596.15 1299.62 1574.58Z" fill="#F0F0F0"/>
  <path d="M617.9 1645.44C641.048 1682.9 708.621 1785.08 732.069 1815.27C755.517 1845.46 796.27 1879.7 805.709 1841.04C815.148 1802.39 778.965 1753.47 754.318 1715.11C729.672 1676.76 660.901 1586.19 638.576 1556.6C616.252 1527.01 579.095 1498.16 570.33 1532.77C561.565 1567.38 594.902 1607.84 617.9 1645.44Z" fill="#E0E0E0"/>
  <path opacity="0.2" d="M2476.74 1911.91C2451.8 1900.69 2425.62 1892.44 2398.75 1887.34C2341.14 1875.28 2281.51 1870.11 2224.95 1855.58C2165.02 1840.07 2105.76 1823.44 2044.48 1813.25C1981.46 1801.89 1919.83 1783.83 1860.65 1759.39L1853.53 1756.54C1762.21 1719.83 1674.19 1660.58 1577.55 1640.05C1522.23 1628.22 1465.07 1627.99 1409.66 1639.38C1397.38 1641.92 1383.52 1646.49 1378.87 1658.18C1372.58 1674.14 1387.64 1689.57 1398.73 1702.68C1433.04 1743.13 1437.76 1801.49 1467.65 1845.01C1498.44 1889.96 1557.54 1929.14 1607.81 1950.57C1684.22 1983.16 1738.84 2001.81 1817.57 2028.85C1856.9 2042.41 1912.64 2053.13 1949.12 2073.28C1997.59 2100.1 2056.02 2135.76 2101.94 2166.69C2156.11 2203.1 2221.81 2235.84 2286.61 2246.48C2321.96 2252.32 2360.1 2249.02 2390.51 2230.15C2394.86 2227.45 2399.58 2223.33 2398.75 2218.24C2397.93 2213.14 2391.26 2210.74 2386.24 2209.4L2354.33 2201.9C2351.11 2201.16 2347.21 2199.51 2347.36 2196.21C2347.51 2192.91 2350.96 2191.79 2353.88 2191.04C2358.45 2190.19 2362.8 2188.43 2366.69 2185.87C2368.58 2184.52 2369.99 2182.6 2370.72 2180.39C2371.45 2178.18 2371.45 2175.8 2370.73 2173.59C2368.26 2168.04 2360.77 2167.29 2354.7 2167.37C2307.73 2167.89 2259.34 2165.95 2216.49 2146.69C2205.47 2141.75 2195.74 2136.13 2194.91 2123.47C2194.25 2116.78 2194.91 2110.03 2196.87 2103.61C2198.82 2097.18 2202.03 2091.2 2206.3 2086.01C2216.08 2075.46 2228.15 2067.28 2241.58 2062.12C2261.81 2053.2 2282.78 2048.86 2302.04 2037.09C2320.8 2025.7 2337.14 2010.73 2350.13 1993.04C2353.14 1988.27 2356.94 1984.04 2361.37 1980.53C2370.66 1974.32 2379.57 1977.01 2389.54 1977.46C2401.67 1977.99 2413.96 1977.84 2426.02 1977.46C2450.21 1977.31 2474.24 1973.44 2497.26 1966C2504.44 1964.1 2510.82 1959.95 2515.47 1954.16C2528.2 1934.31 2489.55 1918.06 2476.74 1911.91Z" fill="black"/>
  <path opacity="0.1" d="M2633.38 1718.48C2722.11 1629.74 2722.11 1485.88 2633.38 1397.15C2544.65 1308.42 2400.78 1308.42 2312.05 1397.15C2223.32 1485.88 2223.32 1629.74 2312.05 1718.48C2400.78 1807.21 2544.65 1807.21 2633.38 1718.48Z" fill="#384B78"/>
  <path opacity="0.1" d="M2685.66 1770.76C2803.27 1653.15 2803.27 1462.47 2685.66 1344.86C2568.05 1227.26 2377.37 1227.26 2259.77 1344.86C2142.16 1462.47 2142.16 1653.15 2259.77 1770.76C2377.37 1888.37 2568.05 1888.37 2685.66 1770.76Z" fill="#384B78"/>
  <path opacity="0.1" d="M2843.11 1617.98C2876.31 1413.46 2737.42 1220.75 2532.9 1187.55C2328.37 1154.35 2135.66 1293.23 2102.46 1497.76C2069.27 1702.28 2208.15 1894.99 2412.67 1928.19C2617.2 1961.39 2809.91 1822.5 2843.11 1617.98Z" fill="#384B78"/>
  <path d="M2236.64 1485.2C2235.89 1511.72 2234.77 1538.24 2232.37 1564.61C2231.53 1586.24 2227.05 1607.56 2219.11 1627.69C2208.92 1648.99 2192.79 1666.89 2172.66 1679.23C2152.54 1691.4 2130.34 1699.76 2107.19 1703.88C2078.86 1709.76 2049.37 1705.82 2023.58 1692.72C2002.61 1681.55 1985.6 1660.5 1984.78 1636.75C1983.95 1613.01 2003.28 1588.73 2027.03 1589.11C2020.28 1583.38 2015.16 1575.97 2012.18 1567.63C2009.21 1559.29 2008.48 1550.31 2010.07 1541.6C2011.67 1532.89 2015.53 1524.75 2021.27 1518.01C2027.01 1511.27 2034.42 1506.15 2042.76 1503.18C2054.01 1500.1 2065.57 1498.31 2077.22 1497.86C2091.75 1496.07 2104.94 1493.37 2115.28 1482.21C2121.9 1474.4 2127.25 1465.6 2131.16 1456.14C2140.07 1436.88 2147.49 1416.96 2157.83 1398.53C2167.66 1379.59 2182.54 1363.75 2200.83 1352.76C2215.8 1343.76 2233.52 1340.46 2250.72 1343.47C2260.69 1344.89 2267.58 1345.86 2262.71 1359.12C2260.54 1365.04 2247.2 1378.08 2245.93 1384.44C2242.16 1399.76 2239.36 1415.3 2237.54 1430.97C2236.04 1448.72 2237.09 1467.22 2236.64 1485.2Z" fill="#263238"/>
  <path d="M2460.78 1640.72C2467.15 1637.73 2474.26 1596.9 2471.19 1566.86C2468.12 1536.82 2481.98 1531.13 2487.45 1541.01C2490.64 1546.56 2492.72 1552.66 2493.59 1558.99C2507.2 1563.72 2519.23 1572.12 2528.35 1583.27C2542.44 1601.32 2559.07 1623.2 2548.73 1666.12C2546.78 1674.36 2537.64 1685.07 2532.7 1696.99C2525.21 1715.56 2531.05 1795.87 2524.38 1879.25C2522.43 1903.52 2515.17 1943.23 2492.92 1950.87C2468.27 1959.56 2438.31 1933.49 2420.1 1914.61C2365.64 1859.02 2320.77 1801.86 2320.77 1801.86L2277.92 1597.2C2330.36 1580.49 2349.83 1607.61 2378.23 1659.23C2413.88 1724.03 2445.65 1788.83 2445.65 1788.83C2454.04 1736.39 2460.18 1726.35 2449.69 1704.55" fill="#FFA8A7"/>
  <path d="M2558.17 1565.21L2420.1 1478.84C2418.83 1477.91 2417.33 1477.34 2415.77 1477.19C2414.2 1477.03 2412.62 1477.29 2411.19 1477.94C2409.01 1479.14 2400.32 1483.41 2397.93 1484.53C2396.58 1485.18 2395.42 1486.18 2394.57 1487.41C2393.71 1488.64 2393.19 1490.08 2393.06 1491.57L2378.37 1575.85C2377.93 1579.63 2378.52 1583.45 2380.08 1586.92C2381.63 1590.39 2384.1 1593.37 2387.21 1595.55L2525.36 1681.93C2526.54 1682.79 2527.92 1683.34 2529.37 1683.54C2530.82 1683.74 2532.3 1683.57 2533.67 1683.05C2536.14 1682 2545.58 1677.36 2548.05 1676.01C2549.25 1675.28 2550.25 1674.29 2550.99 1673.11C2551.74 1671.92 2552.19 1670.58 2552.32 1669.19C2556 1648.07 2563.19 1606.12 2566.78 1584.99C2567.27 1581.22 2566.73 1577.39 2565.21 1573.91C2563.7 1570.43 2561.26 1567.42 2558.17 1565.21V1565.21Z" fill="#384B78"/>
  <path opacity="0.35" d="M2544.31 1572.03L2406.17 1485.65C2404.86 1484.67 2403.3 1484.08 2401.67 1483.95C2400.04 1483.82 2398.4 1484.15 2396.95 1484.9L2397.7 1484.46C2400.17 1483.41 2408.86 1479.06 2411.04 1477.94C2412.45 1477.27 2414.02 1477 2415.58 1477.16C2417.14 1477.32 2418.62 1477.9 2419.88 1478.84L2558.17 1565.29C2560.07 1566.57 2561.73 1568.19 2563.04 1570.08L2549.4 1576.75C2549.4 1576.75 2549.4 1576.75 2549.78 1577.42C2548.38 1575.24 2546.51 1573.4 2544.31 1572.03V1572.03Z" fill="black"/>
  <path opacity="0.45" d="M2387.29 1595.55L2525.43 1681.93C2526.59 1682.87 2528 1683.48 2529.48 1683.67C2530.97 1683.87 2532.48 1683.64 2533.85 1683.03C2535.21 1682.42 2536.38 1681.43 2537.23 1680.2C2538.07 1678.96 2538.55 1677.51 2538.62 1676.01C2542.29 1654.88 2549.48 1612.93 2553.07 1591.73C2553.55 1587.96 2552.99 1584.13 2551.44 1580.66C2549.9 1577.18 2547.43 1574.2 2544.31 1572.03L2406.17 1485.65C2405.01 1484.69 2403.6 1484.06 2402.1 1483.86C2400.6 1483.65 2399.08 1483.87 2397.7 1484.48C2396.32 1485.1 2395.14 1486.09 2394.29 1487.34C2393.44 1488.6 2392.96 1490.06 2392.91 1491.57L2378.38 1575.85C2377.94 1579.63 2378.54 1583.46 2380.11 1586.93C2381.68 1590.4 2384.16 1593.38 2387.29 1595.55V1595.55Z" fill="black"/>
  <path opacity="0.35" d="M2538.69 1624.02C2539.99 1625.02 2541 1626.34 2541.63 1627.85C2542.26 1629.36 2542.49 1631.01 2542.29 1632.63C2542.26 1633.27 2542.06 1633.9 2541.7 1634.43C2541.35 1634.96 2540.85 1635.38 2540.27 1635.65C2539.68 1635.91 2539.04 1636.01 2538.4 1635.93C2537.76 1635.84 2537.16 1635.59 2536.67 1635.18C2535.35 1634.2 2534.33 1632.88 2533.71 1631.36C2533.09 1629.85 2532.89 1628.19 2533.15 1626.57C2533.15 1625.93 2533.34 1625.3 2533.69 1624.76C2534.04 1624.23 2534.53 1623.8 2535.11 1623.53C2535.69 1623.27 2536.34 1623.17 2536.97 1623.26C2537.6 1623.34 2538.2 1623.61 2538.69 1624.02V1624.02Z" fill="black"/>
  <path d="M2398.23 1589.48C2396.84 1588.42 2395.74 1587.02 2395.02 1585.43C2394.3 1583.84 2393.99 1582.09 2394.11 1580.34L2409.09 1496.44L2532.7 1574.13C2534.07 1575.2 2535.17 1576.6 2535.88 1578.19C2536.6 1579.78 2536.92 1581.52 2536.82 1583.27L2521.83 1667.09L2398.23 1589.48Z" fill="#384B78"/>
  <path opacity="0.7" d="M2398.23 1589.48C2396.84 1588.42 2395.74 1587.02 2395.02 1585.43C2394.3 1583.84 2393.99 1582.09 2394.11 1580.34L2409.09 1496.44L2532.7 1574.13C2534.07 1575.2 2535.17 1576.6 2535.88 1578.19C2536.6 1579.78 2536.92 1581.52 2536.82 1583.27L2521.83 1667.09L2398.23 1589.48Z" fill="white"/>
  <path d="M2522.43 1663.57L2521.83 1667.09L2398.15 1589.48C2396.8 1588.4 2395.72 1587 2395.02 1585.41C2394.31 1583.82 2394 1582.08 2394.11 1580.34L2409.09 1496.44L2412.09 1498.39L2397.63 1578.77C2397.52 1580.51 2397.84 1582.26 2398.56 1583.85C2399.28 1585.44 2400.37 1586.83 2401.75 1587.91L2522.43 1663.57Z" fill="#384B78"/>
  <path opacity="0.55" d="M2566.86 1584.99C2563.26 1606.11 2556 1648.07 2552.4 1669.19C2552.28 1670.59 2551.84 1671.93 2551.09 1673.12C2550.35 1674.31 2549.33 1675.3 2548.13 1676.01C2545.66 1677.36 2536.22 1682 2533.82 1683.5H2533.22C2534.75 1682.9 2536.08 1681.88 2537.05 1680.55C2538.02 1679.23 2538.59 1677.65 2538.69 1676.01C2542.29 1654.88 2549.48 1612.93 2553.07 1591.73C2553.8 1586.42 2552.4 1581.04 2549.18 1576.75L2562.96 1570.01C2566.11 1574.33 2567.5 1579.68 2566.86 1584.99V1584.99Z" fill="black"/>
  <path d="M2458.53 1640.5C2454.19 1635.93 2453.89 1622.6 2447.07 1610.53C2439.13 1596.38 2417.11 1597.5 2422.72 1608.81C2428.34 1620.12 2429.54 1630.16 2431.41 1657.96C2433.29 1685.75 2439.43 1688.6 2449.54 1704.7L2460.86 1642.22L2458.53 1640.5Z" fill="#FFA8A7"/>
  <path d="M2536.97 1506.18H2536.44C2535.71 1506.12 2534.99 1505.92 2534.33 1505.58C2533.68 1505.25 2533.09 1504.78 2532.62 1504.22C2532.15 1503.65 2531.79 1503 2531.57 1502.29C2531.35 1501.59 2531.28 1500.85 2531.35 1500.11L2535.39 1456.51C2535.52 1455.02 2536.24 1453.64 2537.38 1452.68C2538.53 1451.72 2540.01 1451.25 2541.5 1451.38C2542.99 1451.51 2544.37 1452.23 2545.33 1453.37C2546.29 1454.52 2546.76 1456 2546.63 1457.49L2542.51 1501.16C2542.38 1502.54 2541.74 1503.82 2540.71 1504.75C2539.69 1505.67 2538.35 1506.19 2536.97 1506.18V1506.18Z" fill="#384B78"/>
  <path d="M2572.4 1522.29C2571.17 1522.3 2569.98 1521.88 2569.03 1521.09C2567.85 1520.18 2567.08 1518.85 2566.88 1517.37C2566.68 1515.9 2567.08 1514.4 2567.98 1513.22L2597.27 1475.32C2598.17 1474.24 2599.43 1473.54 2600.82 1473.34C2602.2 1473.15 2603.61 1473.48 2604.76 1474.27C2605.35 1474.71 2605.84 1475.27 2606.21 1475.91C2606.58 1476.55 2606.82 1477.26 2606.91 1477.99C2607 1478.73 2606.94 1479.47 2606.74 1480.18C2606.54 1480.89 2606.2 1481.56 2605.74 1482.13L2576.52 1520.11C2576.03 1520.75 2575.4 1521.27 2574.69 1521.64C2573.98 1522.02 2573.2 1522.24 2572.4 1522.29V1522.29Z" fill="#384B78"/>
  <path d="M2593.98 1555.02C2592.65 1555.02 2591.36 1554.55 2590.35 1553.68C2589.33 1552.82 2588.66 1551.63 2588.45 1550.32C2588.23 1549 2588.49 1547.66 2589.17 1546.52C2589.85 1545.38 2590.92 1544.51 2592.18 1544.09L2635.85 1529.1C2637.26 1528.62 2638.81 1528.71 2640.15 1529.36C2641.49 1530.02 2642.52 1531.18 2643.01 1532.59C2643.49 1534 2643.4 1535.54 2642.75 1536.89C2642.09 1538.23 2640.93 1539.25 2639.52 1539.74L2595.85 1554.72C2595.25 1554.93 2594.61 1555.03 2593.98 1555.02V1555.02Z" fill="#384B78"/>
  <path d="M2445.8 1788.75C2438.83 1813.03 2423.32 1854.75 2430.81 1875.06C2430.81 1875.06 2408.34 1844.64 2436.13 1769.28L2445.8 1788.75Z" fill="#F28F8F"/>
  <path d="M1551.1 1213.49C1562.49 1217.62 1572.6 1224.67 1580.39 1233.94C1588.78 1245.4 1592.46 1259.64 1590.66 1273.72C1589.23 1285.11 1584.06 1298.37 1583.99 1309.76C1585.56 1325.36 1588.96 1340.72 1594.1 1355.53C1611.41 1411.06 1632.84 1465.23 1658.23 1517.57C1680.18 1564.99 1706.17 1614.36 1716.36 1666.12C1774.57 1676.61 1834.05 1691.82 1860.65 1697.66C1881.8 1697.39 1902.87 1700.38 1923.12 1706.5C2013.02 1739.31 2022.76 1813.33 2048.45 1858.2L1981.33 1923.82C1890.31 1872.43 1695.24 1781.49 1647.07 1759.01C1598.9 1736.54 1582.12 1732.27 1569.91 1711.59C1559.56 1691.75 1552.17 1670.5 1547.96 1648.52C1534.1 1589.78 1529.53 1524.61 1518.44 1465.2C1512.52 1433.44 1506.6 1401.68 1500.46 1369.99C1498.15 1357.06 1494.99 1344.3 1491.02 1331.78C1485.1 1314.98 1476.5 1299.24 1465.55 1285.18C1447.72 1261.21 1429.14 1237.91 1412.59 1212.82C1405.71 1203.36 1400.63 1192.72 1397.6 1181.43C1395.35 1166.77 1397.21 1151.78 1403 1138.13C1407.72 1125.09 1412.14 1112.43 1416.48 1099.25C1417.47 1095.13 1419.54 1091.36 1422.47 1088.31C1431.46 1080.82 1444.95 1089.58 1450.19 1097.3C1453.64 1103.02 1457.47 1108.5 1461.65 1113.71C1464.89 1116.76 1468.37 1119.54 1472.07 1122.02C1483.11 1130.32 1492.43 1140.71 1499.49 1152.59C1506.98 1164.65 1511.17 1177.61 1519.26 1189.14C1527.71 1199.76 1538.65 1208.12 1551.1 1213.49V1213.49Z" fill="#FFA8A7"/>
  <path d="M1592.53 1350.28L1529 1532.55C1534.4 1571.73 1539.41 1611.51 1548.18 1648.67C1552.39 1670.65 1559.79 1691.9 1570.13 1711.74C1582.34 1732.42 1599.2 1736.54 1647.29 1759.16L1649.91 1760.36L1653.13 1761.86L1658.3 1764.33L1662.35 1766.21L1666.69 1768.23L1671.11 1770.33L1690.14 1779.32L1692.69 1780.51L1701.68 1784.71L1704 1785.83L1715.16 1791.08H1715.91L1728.8 1797.15H1729.25L1748.2 1725.23C1746.4 1725.83 1656.13 1710.25 1656.13 1710.25C1665.71 1690 1670.82 1667.92 1671.11 1645.52C1672.16 1621.7 1671.79 1578.1 1671.11 1544.61C1666.69 1535.4 1662.35 1526.11 1658.15 1517.04C1632.77 1464.73 1611.34 1410.59 1594.03 1355.08L1592.53 1350.28Z" fill="#F28F8F"/>
  <path d="M1963.2 1725.83C1946.94 1711.55 1926.87 1702.31 1905.44 1699.23C1881.25 1694.74 1872.71 1696.01 1854.58 1692.27C1836.45 1688.52 1807.46 1682.08 1807.46 1682.08C1807.46 1682.08 1791.65 1680.8 1766.1 1695.79C1740.56 1710.77 1702.28 1749.2 1696.96 1798.94C1691.64 1848.69 1713.96 1871.98 1713.96 1871.98L1867.09 1918.8L1963.2 1725.83Z" fill="#384B78"/>
  <path opacity="0.3" d="M1963.2 1725.83C1946.94 1711.55 1926.87 1702.31 1905.44 1699.23C1881.25 1694.74 1872.71 1696.01 1854.58 1692.27C1836.45 1688.52 1807.46 1682.08 1807.46 1682.08C1807.46 1682.08 1791.65 1680.8 1766.1 1695.79C1740.56 1710.77 1702.28 1749.2 1696.96 1798.94C1691.64 1848.69 1713.96 1871.98 1713.96 1871.98L1867.09 1918.8L1963.2 1725.83Z" fill="white"/>
  <path opacity="0.1" d="M1904.1 1749.8C1864.62 1717.66 1799.97 1737.36 1799.97 1737.36C1799.97 1737.36 1750.37 1726.2 1732.99 1723.8C1727.1 1730.26 1721.76 1737.2 1717.04 1744.56L1736.59 1777.22L1808.13 1791.38C1808.13 1791.38 1943.88 1781.56 1904.1 1749.8Z" fill="black"/>
  <path d="M1943.13 1769.05L1896.08 1878.73L1846.64 1994.09C1696.81 1942.7 1523.16 1853.03 1489.82 1808.61C1472.52 1785.46 1502.56 1664.32 1535.22 1553.53C1561.74 1464.08 1589.91 1381.22 1596.35 1362.64C1596.6 1362.17 1596.8 1361.67 1596.95 1361.15C1596.78 1358.99 1595.79 1356.98 1594.18 1355.53C1588.97 1340.76 1585.55 1325.42 1583.99 1309.83C1583.99 1298.44 1589.16 1285.18 1590.66 1273.8C1591.04 1270.74 1591.17 1267.66 1591.03 1264.58C1595.75 1263.46 1600.52 1262.61 1605.34 1262.04C1616.5 1260.91 1627.29 1258.29 1638.45 1257.39C1659.2 1255.59 1685.12 1262.63 1692.99 1283.99C1696.09 1293.01 1696.98 1302.64 1695.61 1312.08C1695.31 1314.77 1694.94 1317.47 1694.49 1320.17C1690.07 1344.67 1674.93 1367.29 1670.96 1392.16C1666.24 1428.12 1664 1475.84 1661.45 1524.46C1657.33 1604.32 1652.38 1686.5 1634.03 1722.76C1687.73 1729.07 1740.89 1739.34 1793.07 1753.47C1873.9 1727.33 1943.13 1769.05 1943.13 1769.05Z" fill="#FFA8A7"/>
  <path d="M1590.66 1273.87C1589.16 1285.26 1584.06 1298.44 1583.99 1309.83C1585.54 1325.44 1588.96 1340.81 1594.18 1355.6C1595.79 1357.05 1596.78 1359.06 1596.95 1361.22C1597.26 1348.97 1596.3 1336.72 1594.1 1324.66C1591.93 1308.03 1602.64 1282.71 1600.99 1262.71C1597.77 1263.23 1594.48 1263.83 1591.03 1264.66C1591.17 1267.73 1591.04 1270.82 1590.66 1273.87V1273.87Z" fill="#F28F8F"/>
  <path opacity="0.05" d="M1562.34 1732.87C1608.64 1736.61 1634.03 1722.68 1634.03 1722.68C1641.11 1706.66 1645.94 1689.75 1648.41 1672.41C1634.71 1713.02 1562.34 1732.87 1562.34 1732.87Z" fill="black"/>
  <path d="M1947.7 1765.76C1918.29 1751.29 1886.26 1742.95 1853.53 1741.26C1823.56 1740.36 1804.69 1748.75 1792.77 1749.43C1780.86 1750.1 1765.06 1740.29 1724.53 1733.47C1724.53 1733.47 1713.14 1730.02 1690.67 1744.56C1668.19 1759.09 1647.22 1796.25 1645.72 1814.6C1645.72 1814.6 1700.48 1848.16 1697.18 1851.16C1693.89 1854.15 1638.45 1836.18 1638.45 1836.18C1633.49 1849.73 1631.53 1864.19 1632.68 1878.58C1634.99 1892.66 1639.76 1906.23 1646.77 1918.66C1646.77 1918.66 1796 1993.57 1852.48 1996.72C1908.97 1999.86 1947.7 1765.76 1947.7 1765.76Z" fill="#384B78"/>
  <path opacity="0.5" d="M1947.7 1765.76C1918.29 1751.29 1886.26 1742.95 1853.53 1741.26C1823.56 1740.36 1804.69 1748.75 1792.77 1749.43C1780.86 1750.1 1765.06 1740.29 1724.53 1733.47C1724.53 1733.47 1713.14 1730.02 1690.67 1744.56C1668.19 1759.09 1647.22 1796.25 1645.72 1814.6C1645.72 1814.6 1700.48 1848.16 1697.18 1851.16C1693.89 1854.15 1638.45 1836.18 1638.45 1836.18C1633.49 1849.73 1631.53 1864.19 1632.68 1878.58C1634.99 1892.66 1639.76 1906.23 1646.77 1918.66C1646.77 1918.66 1796 1993.57 1852.48 1996.72C1908.97 1999.86 1947.7 1765.76 1947.7 1765.76Z" fill="white"/>
  <path d="M2191.09 1602.59C2150.04 1608.88 2110.01 1620.6 2072.05 1637.43C2044.48 1651.59 2031.37 1744.48 2012.72 1771.67C1998.4 1753.34 1981.55 1737.12 1962.68 1723.5C1944.77 1721.86 1883.72 1749.42 1849.56 1816.25C1813.23 1887.34 1820.42 1959.03 1844.09 1998.66C1898.93 2015.67 1963.95 2038.44 2073.25 2030.28C2123.14 2026.61 2194.84 1985.33 2229.3 1959.86C2251.77 1943.3 2261.36 1935.29 2279.71 1920.45C2356.95 1904.5 2359.72 1837.15 2345.86 1780.06C2329.23 1711.89 2324.59 1671.21 2297.54 1626.87C2285.63 1607.01 2243.53 1595.85 2191.09 1602.59Z" fill="#455A64"/>
  <path d="M2246.08 1918.43C2224.8 1931.54 2192.89 1931.99 2163.67 1921.35C2134.46 1910.71 2117.75 1877.3 2118.72 1851.16C2118.72 1851.16 2102.32 1911.09 2155.06 1933.56C2211.17 1957.91 2244.95 1925.7 2246.08 1918.43Z" fill="#37474F"/>
  <path d="M2379.72 1562.66C2438.89 1538.15 2466.99 1470.31 2442.48 1411.14C2417.97 1351.97 2350.13 1323.87 2290.96 1348.38C2231.79 1372.89 2203.69 1440.73 2228.2 1499.9C2252.71 1559.07 2320.55 1587.17 2379.72 1562.66Z" fill="#263238"/>
  <path d="M2214.01 1538.09L2186.15 1615.63L2137.98 1626.64C2142.77 1640.65 2186 1751.67 2209.89 1760.81C2230.72 1768.3 2286.61 1770.1 2297.54 1743.06C2301.66 1732.94 2285.48 1649.79 2285.48 1649.79L2287.65 1644.1L2214.01 1538.09Z" fill="#FFA8A7"/>
  <path d="M2331.48 1563.49C2338.97 1558.32 2346.46 1552.7 2356.13 1557.87C2360.28 1560.45 2363.85 1563.87 2366.61 1567.91C2380.09 1586.01 2387.08 1608.13 2386.47 1630.69C2386.08 1643.8 2383.1 1656.71 2377.7 1668.67C2372.68 1679.83 2364.14 1688.67 2360.62 1700.43C2355.83 1716.31 2359.27 1733.32 2361.07 1749.87C2362.42 1758.14 2362.08 1766.59 2360.09 1774.73C2358.09 1782.86 2354.48 1790.51 2349.46 1797.22C2347.8 1783.65 2343.66 1770.49 2337.25 1758.41C2330.61 1748.61 2323.09 1739.43 2314.77 1731C2304.04 1719.37 2295.01 1706.28 2287.95 1692.12C2284.02 1684.14 2280.98 1675.74 2278.89 1667.09L2287.95 1644.1C2294.85 1628.21 2296.79 1616.6 2302.94 1600.57C2306.02 1592.33 2309.83 1584.38 2314.32 1576.82C2319.07 1571.25 2324.91 1566.71 2331.48 1563.49V1563.49Z" fill="#263238"/>
  <path d="M2386.84 1406.32L2379.35 1409.92C2379.35 1409.92 2296.94 1364.97 2250.72 1389.76C2204.5 1414.56 2207.65 1468.2 2210.79 1488.43L2209.29 1487.15C2207.13 1480.4 2203.7 1474.12 2199.18 1468.65C2192.44 1460.56 2165.02 1455.31 2151.69 1479.51C2139.32 1501.98 2154.68 1532.4 2171.16 1543.34C2172.88 1544.5 2174.71 1545.48 2176.63 1546.26C2182.57 1548.8 2188.98 1550.07 2195.44 1550C2199.44 1550.28 2203.43 1549.28 2206.82 1547.14C2210.22 1545 2212.84 1541.83 2214.31 1538.09V1538.09L2223.3 1570.01C2226.07 1585.81 2231.25 1601.1 2238.66 1615.33C2247.5 1624.84 2272.67 1640.65 2277.92 1641.02L2285.93 1644.17C2310.5 1652.41 2335.97 1660.2 2350.36 1656.46C2364.74 1652.71 2394.86 1636.53 2410.29 1554.05C2427.89 1456.36 2403.62 1420.18 2386.84 1406.32Z" fill="#FFA8A7"/>
  <path d="M2181.58 1435.76C2181.58 1433.89 2180.83 1421.45 2181.58 1419.8C2199.33 1357.33 2242.56 1329.23 2317.55 1329.01C2342 1330.68 2365.66 1338.4 2386.39 1351.48C2417.41 1370.59 2407.74 1413.96 2394.71 1446.7C2391.27 1456.4 2385.39 1465.06 2377.63 1471.83C2369.88 1478.6 2360.51 1483.26 2350.43 1485.35C2348.9 1485.8 2347.28 1485.83 2345.74 1485.44C2344.2 1485.04 2342.79 1484.24 2341.67 1483.11C2340.74 1481.28 2340.4 1479.21 2340.69 1477.19L2342.49 1444.45C2331.37 1462.63 2316.21 1478 2298.19 1489.38C2280.17 1500.76 2259.78 1507.84 2238.59 1510.08C2233.36 1510.82 2228.05 1510.54 2222.93 1509.25C2212.59 1506.11 2213.12 1499.29 2209.89 1490.82C2207.83 1485.12 2205.14 1479.67 2201.88 1474.57C2197.61 1468.27 2188.99 1465.88 2184.42 1460.26C2182.24 1456.61 2180.85 1452.54 2180.36 1448.32C2179.87 1444.09 2180.29 1439.81 2181.58 1435.76Z" fill="#263238"/>
  <path d="M2221.06 1558.77C2221.06 1558.77 2223.08 1605.82 2233.27 1620.65C2245.04 1637.31 2261.93 1649.67 2281.36 1655.86L2287.43 1644.1C2280.54 1641.45 2273.81 1638.39 2267.28 1634.96C2259.39 1630.71 2252.02 1625.55 2245.33 1619.6C2233.49 1608.29 2223.83 1566.26 2221.06 1558.77Z" fill="#F28F8F"/>
  <path d="M2281.59 1641.62C2281.59 1641.62 2260.16 1701.03 2252.15 1711.07C2247.2 1717.29 2236.34 1715.19 2229.67 1711.89C2229.67 1711.89 2244.2 1724.4 2254.84 1714.52C2265.48 1704.63 2288.03 1644.1 2288.03 1644.1L2281.59 1641.62Z" fill="#F28F8F"/>
  <path d="M2325.49 1534.72C2325.26 1536.78 2324.44 1538.72 2323.12 1540.31C2321.81 1541.9 2320.05 1543.08 2318.08 1543.68C2316.1 1544.29 2313.99 1544.3 2312.01 1543.71C2310.02 1543.13 2308.26 1541.98 2306.92 1540.4C2305.59 1538.83 2304.74 1536.89 2304.5 1534.84C2304.25 1532.79 2304.61 1530.71 2305.54 1528.86C2306.46 1527.01 2307.9 1525.47 2309.69 1524.44C2311.48 1523.4 2313.53 1522.92 2315.6 1523.04C2317.02 1523.15 2318.4 1523.54 2319.66 1524.19C2320.93 1524.84 2322.05 1525.73 2322.97 1526.82C2323.89 1527.91 2324.59 1529.16 2325.02 1530.52C2325.45 1531.88 2325.61 1533.3 2325.49 1534.72V1534.72Z" fill="#263238"/>
  <path d="M2323.01 1498.54L2297.84 1504.68C2297.13 1501.26 2297.75 1497.7 2299.57 1494.72C2301.39 1491.74 2304.29 1489.57 2307.66 1488.65C2309.32 1488.24 2311.04 1488.18 2312.73 1488.46C2314.41 1488.75 2316.02 1489.37 2317.46 1490.29C2318.9 1491.22 2320.13 1492.43 2321.09 1493.84C2322.04 1495.26 2322.7 1496.86 2323.01 1498.54V1498.54Z" fill="#263238"/>
  <path d="M2313.35 1591.88L2342.72 1610.53C2341.58 1612.53 2340.05 1614.27 2338.23 1615.66C2336.4 1617.05 2334.31 1618.06 2332.08 1618.62C2329.86 1619.18 2327.54 1619.28 2325.27 1618.92C2323.01 1618.56 2320.84 1617.75 2318.89 1616.53C2314.97 1613.92 2312.21 1609.91 2311.18 1605.32C2310.15 1600.73 2310.92 1595.91 2313.35 1591.88V1591.88Z" fill="#F28F8F"/>
  <path d="M2406.02 1507.53L2382.5 1496.22C2383.15 1494.64 2384.12 1493.22 2385.34 1492.04C2386.57 1490.86 2388.02 1489.93 2389.61 1489.33C2391.2 1488.73 2392.9 1488.46 2394.6 1488.53C2396.3 1488.61 2397.97 1489.03 2399.5 1489.77C2402.66 1491.33 2405.1 1494.04 2406.31 1497.35C2407.52 1500.65 2407.42 1504.3 2406.02 1507.53V1507.53Z" fill="#263238"/>
  <path d="M2398.75 1534.72C2398.69 1536.14 2398.36 1537.53 2397.76 1538.82C2397.16 1540.1 2396.32 1541.26 2395.28 1542.22C2394.23 1543.18 2393.01 1543.93 2391.68 1544.41C2390.35 1544.9 2388.93 1545.12 2387.51 1545.06C2384.65 1544.79 2382.01 1543.41 2380.16 1541.21C2378.31 1539.01 2377.4 1536.17 2377.63 1533.3C2377.68 1531.88 2378.02 1530.5 2378.62 1529.21C2379.21 1527.93 2380.06 1526.78 2381.1 1525.82C2382.15 1524.87 2383.37 1524.13 2384.7 1523.65C2386.04 1523.18 2387.45 1522.96 2388.86 1523.04C2391.72 1523.28 2394.36 1524.65 2396.22 1526.84C2398.07 1529.03 2398.98 1531.86 2398.75 1534.72V1534.72Z" fill="#263238"/>
  <path d="M2355.9 1529.1L2345.86 1592.63L2377.55 1588.66L2355.9 1529.1Z" fill="#F28F8F"/>
  <path d="M2098.35 1626.64C2028.98 1643.5 2005.15 1674.44 1996.54 1786.21C1992.34 1840.82 1983.58 1975.59 1987.55 2004.28C1992.94 2043.24 1995.49 2064.21 2018.11 2080.54C2053.17 2106.16 2223.45 2203.25 2267.43 2218.31C2303.61 2230.75 2348.78 2235.32 2384.52 2219.51C2391.19 2216.59 2398.45 2210.89 2396.95 2203.85C2396.44 2202.03 2395.49 2200.36 2394.18 2198.99C2392.88 2197.62 2391.26 2196.59 2389.46 2195.99C2385.91 2194.76 2382.2 2194.05 2378.45 2193.89C2353.39 2191.47 2328.84 2185.28 2305.63 2175.53C2303.31 2174.56 2300.54 2172.31 2301.81 2170.14C2302.24 2169.59 2302.78 2169.15 2303.41 2168.85C2304.03 2168.55 2304.72 2168.4 2305.41 2168.42C2320.39 2166.1 2336.8 2164.6 2348.33 2153.44C2355.83 2145.94 2349.68 2138.45 2325.86 2140.33C2302.04 2142.2 2272.97 2128.04 2242.71 2131.94L2094.68 2009.98L2112.36 1808.38C2112.36 1808.38 2136.1 1662.67 2098.35 1626.64Z" fill="#FFA8A7"/>
</svg>
  